<svg xmlns="http://www.w3.org/2000/svg"
width="1199"
height="799"

viewBox="0 0 1199 799"
><path style="fill:#000000;fill-rule:evenodd;stroke:#ffffff;stroke-width:1px;stroke-opacity:1"
d="M 1,1 1200,1 1200,800 1,800 z"
id="face 1"
/>
<path style="fill:#e3ffba;fill-rule:evenodd;stroke:#000000;stroke-width:1px;stroke-opacity:1"
d="M 538.3003677146942,370.458773488384 481.79251960845437,409.50837859501996 516.3693931568483,505.99375321514754 563.1599910043442,508.52755842735337 607.4116754893984,431.3856656914187 566.4016552559672,392.5002559672848 z"
id="face 1"
/>
<path style="fill:#bae3ff;fill-rule:evenodd;stroke:#000000;stroke-width:1px;stroke-opacity:1"
d="M 466.2979491453567,253.5995236624847 413.1778945185774,218.04202762634233 426.7496529312586,255.91347348938905 z"
id="face 1"
/>
<path style="fill:#bae3ff;fill-rule:evenodd;stroke:#000000;stroke-width:1px;stroke-opacity:1"
d="M 563.1599910043442,508.52755842735337 696.376523451354,515.7415022492804 607.4116754893984,431.3856656914187 z"
id="face 1"
/>
<path style="fill:#bae3ff;fill-rule:evenodd;stroke:#000000;stroke-width:1px;stroke-opacity:1"
d="M 688.8343573622076,289.44531100445084 659.0655406303252,287.0043070552645 588.771478343426,335.5808405039269 641.9496460681692,371.1772362788781 z"
id="face 1"
/>
<path style="fill:#bae3ff;fill-rule:evenodd;stroke:#000000;stroke-width:1px;stroke-opacity:1"
d="M 500.90661796190005,341.12866970626817 459.28067455451094,308.4790090480461 446.37324537489945,310.6723187524634 463.3985603958097,358.1807753952853 z"
id="face 1"
/>
<path style="fill:#bae3ff;fill-rule:evenodd;stroke:#000000;stroke-width:1px;stroke-opacity:1"
d="M 606.2892882228771,293.21905914020084 602.4432534325916,245.63373414822038 466.2979491453567,253.5995236624847 558.1686392626982,315.09591561156606 z"
id="face 1"
/>
<path style="fill:#ffbae3;fill-rule:evenodd;stroke:#000000;stroke-width:1px;stroke-opacity:1"
d="M 459.28067455451094,308.4790090480461 500.90661796190005,341.12866970626817 558.1686392626982,315.09591561156606 466.2979491453567,253.5995236624847 426.7496529312586,255.91347348938905 446.37324537489945,310.6723187524634 z"
id="face 1"
/>
<path style="fill:#ffbae3;fill-rule:evenodd;stroke:#000000;stroke-width:1px;stroke-opacity:1"
d="M 588.771478343426,335.5808405039269 538.3003677146942,370.458773488384 566.4016552559672,392.5002559672848 607.4116754893984,431.3856656914187 641.9496460681692,371.1772362788781 z"
id="face 1"
/>
<path style="fill:#bae3ff;fill-rule:evenodd;stroke:#000000;stroke-width:1px;stroke-opacity:1"
d="M 481.79251960845437,409.50837859501996 354.8292436383525,497.2460284229888 516.3693931568483,505.99375321514754 z"
id="face 1"
/>
<path style="fill:#bae3ff;fill-rule:evenodd;stroke:#000000;stroke-width:1px;stroke-opacity:1"
d="M 563.1599910043442,508.52755842735337 516.3693931568483,505.99375321514754 534.9196777830988,557.7575761926273 z"
id="face 1"
/>
<path style="fill:#ffbae3;fill-rule:evenodd;stroke:#000000;stroke-width:1px;stroke-opacity:1"
d="M 481.79251960845437,409.50837859501996 538.3003677146942,370.458773488384 500.90661796190005,341.12866970626817 463.3985603958097,358.1807753952853 z"
id="face 1"
/>
<path style="fill:#bae3ff;fill-rule:evenodd;stroke:#000000;stroke-width:1px;stroke-opacity:1"
d="M 538.3003677146942,370.458773488384 588.771478343426,335.5808405039269 558.1686392626982,315.09591561156606 500.90661796190005,341.12866970626817 z"
id="face 1"
/>
<path style="fill:#ffbae3;fill-rule:evenodd;stroke:#000000;stroke-width:1px;stroke-opacity:1"
d="M 659.0655406303252,287.0043070552645 688.8343573622076,289.44531100445084 717.8395242663456,238.88195957174744 602.4432534325916,245.63373414822038 606.2892882228771,293.21905914020084 558.1686392626982,315.09591561156606 588.771478343426,335.5808405039269 z"
id="face 1"
/>
<path style="fill:none;fill-rule:evenodd;stroke:#ffffff;stroke-width:1px;stroke-opacity:1"
d="M 354.8292436383525,497.2460284229888 481.79251960845437,409.50837859501996 463.3985603958097,358.1807753952853 246,457.015625 463.3985603958097,358.1807753952853 446.37324537489945,310.6723187524634 309,334.015625 446.37324537489945,310.6723187524634 426.7496529312586,255.91347348938905 237,267.015625 426.7496529312586,255.91347348938905 413.1778945185774,218.04202762634233 466.2979491453567,253.5995236624847 602.4432534325916,245.63373414822038 593.2015380266027,131.28998661161953 602.4432534325916,245.63373414822038 717.8395242663456,238.88195957174744 688.8343573622076,289.44531100445084 834.152608860693,301.36121713506793 688.8343573622076,289.44531100445084 641.9496460681692,371.1772362788781 735.6878655220875,433.9237147997688 641.9496460681692,371.1772362788781 607.4116754893984,431.3856656914187 696.376523451354,515.7415022492804 563.1599910043442,508.52755842735337 534.9196777830988,557.7575761926273 516.3693931568483,505.99375321514754 z"
id="face 1"
/>
</svg>