<?xml version="1.0" encoding="UTF-8" standalone="no"?>
<svg
   xmlns:dc="http://purl.org/dc/elements/1.1/"
   xmlns:cc="http://creativecommons.org/ns#"
   xmlns:rdf="http://www.w3.org/1999/02/22-rdf-syntax-ns#"
   xmlns:svg="http://www.w3.org/2000/svg"
   xmlns="http://www.w3.org/2000/svg"
   xmlns:sodipodi="http://sodipodi.sourceforge.net/DTD/sodipodi-0.dtd"
   xmlns:inkscape="http://www.inkscape.org/namespaces/inkscape"
   width="1199"
   height="799"
   viewBox="0 0 1199 799"
   id="svg2"
   version="1.1"
   inkscape:version="0.91 r13725"
   sodipodi:docname="drag_line_icon.svg"
   inkscape:export-filename="D:\GIT\ScribbleJS\examples\images\drag_line_tool.png"
   inkscape:export-xdpi="90"
   inkscape:export-ydpi="90">
  <metadata
     id="metadata87">
    <rdf:RDF>
      <cc:Work
         rdf:about="">
        <dc:format>image/svg+xml</dc:format>
        <dc:type
           rdf:resource="http://purl.org/dc/dcmitype/StillImage" />
        <dc:title></dc:title>
      </cc:Work>
    </rdf:RDF>
  </metadata>
  <defs
     id="defs85" />
  <sodipodi:namedview
     pagecolor="#ffffff"
     bordercolor="#666666"
     borderopacity="1"
     objecttolerance="10"
     gridtolerance="10"
     guidetolerance="10"
     inkscape:pageopacity="0"
     inkscape:pageshadow="2"
     inkscape:window-width="1920"
     inkscape:window-height="1017"
     id="namedview83"
     showgrid="false"
     inkscape:zoom="10.870219"
     inkscape:cx="311.05573"
     inkscape:cy="559.80119"
     inkscape:window-x="-8"
     inkscape:window-y="-8"
     inkscape:window-maximized="1"
     inkscape:current-layer="svg2" />
  <rect
     style="opacity:1;fill:#000000;fill-opacity:1;stroke:#ffffff;stroke-width:0.99999988;stroke-linejoin:round;stroke-miterlimit:4;stroke-dasharray:none;stroke-dashoffset:0;stroke-opacity:1"
     id="rect4215"
     width="63"
     height="63.005901"
     x="-317.14072"
     y="206.8419"
     transform="scale(-1,1)" />
  <path
     inkscape:connector-curvature="0"
     style="fill:#ffbae3;fill-rule:evenodd;stroke:#000000;stroke-width:1px;stroke-opacity:1"
     d="m 291.10235,232.57229 -1.71127,0.69246 -0.41151,0.80752 -0.6889,0.78326 -0.42233,1.01995 -0.025,1.41341 -0.0957,1.97878 0.0309,0.21761 0.18129,-0.0314 1.81696,-0.41552 1.21258,-0.77272 1.03527,-0.0799 -0.0775,-1.40953 0.0463,-1.23417 -0.35751,-2.03805 z"
     id="path29" />
  <path
     inkscape:connector-curvature="0"
     style="fill:#bae3ff;fill-rule:evenodd;stroke:#000000;stroke-width:1px;stroke-opacity:1"
     d="m 287.77855,239.48528 0.13106,0.92334 -0.0879,1.09596 0.4493,0.73388 0.49798,1.17389 1.10481,0.73239 1.08856,-0.56787 0.74468,-0.39713 0.63652,-1.49324 -0.31707,-1.47306 0.0106,-1.8004 -0.0125,-0.22734 -1.03527,0.0799 -1.21258,0.77273 -1.81696,0.41552 z"
     id="path31" />
  <path
     inkscape:connector-curvature="0"
     style="fill:#ffbae3;fill-rule:evenodd;stroke:#000000;stroke-width:1px;stroke-opacity:1"
     d="m 290.72555,220.27134 -1.5534,-1.22534 -1.37729,-0.4102 -1.56191,-0.21209 -1.75881,-0.0969 -1.8241,6.6e-4 -2.34352,0.33342 -1.78721,0.48696 -2.1879,0.68674 -1.82285,1.21136 -2.22017,0.76335 -1.44418,2.01594 -1.32644,1.64235 -0.3474,0.59159 0.34569,-0.1157 2.61013,-1.43677 2.06949,-0.41119 3.45703,-1.34942 3.12682,-0.35768 2.19517,-0.66251 3.08353,-0.81003 1.77987,-0.63606 1.40375,0.006 1.39317,1.11128 0.4904,0.48489 -0.23232,-1.10033 z"
     id="path33" />
  <path
     inkscape:connector-curvature="0"
     style="fill:#bae3ff;fill-rule:evenodd;stroke:#000000;stroke-width:1px;stroke-opacity:1"
     d="m 267.46223,234.89071 -0.31192,0.46366 -0.0989,1.61935 0.049,1.70018 0.0855,1.92124 0.08,1.91373 -0.22768,1.02487 0.76797,-0.0247 1.22801,-0.0519 -0.37518,-0.78523 -0.47039,-3.92027 -0.66396,-3.10677 z"
     id="path35" />
  <path
     inkscape:connector-curvature="0"
     style="fill:#bae3ff;fill-rule:evenodd;stroke:#000000;stroke-width:1px;stroke-opacity:1"
     d="m 288.31047,214.32553 -0.0103,-0.0333 -1.55078,-0.15773 -2.10927,-0.13987 -1.97611,0.28743 -2.11421,0.48819 -3.13468,0.76738 -1.88176,0.99749 -1.48961,1.17714 -1.525,1.28614 -1.85662,0.70162 -1.22704,1.40995 -0.0729,0.11824 0.60717,-0.71998 1.48176,-0.4618 0.79512,-0.63099 1.85658,-0.71125 2.5403,-0.59765 1.3091,-0.35247 1.50388,-1.25549 2.34937,-0.41031 1.25001,-0.49942 1.19969,-0.55677 1.55198,-0.83065 1.69265,0.10678 z"
     id="path37" />
  <path
     inkscape:connector-curvature="0"
     style="fill:#bae3ff;fill-rule:evenodd;stroke:#000000;stroke-width:1px;stroke-opacity:1"
     d="m 280.51013,252.15434 2.82396,-0.0366 2.45648,-0.41056 3.25045,-1.08006 2.46355,-1.10252 2.4775,-0.40723 1.94074,-1.64123 0.85586,-1.33224 1.46738,-1.66404 0.19907,-1.389 0.49522,-1.48973 -0.0334,-1.74203 -0.32408,-2.74239 -0.46801,-1.30786 0.0269,0.69581 -0.14327,2.77164 -0.5959,1.57159 -0.98362,1.95776 -1.1422,1.33586 -1.84208,1.2563 -1.16961,1.43564 -2.09247,1.443 -1.68809,0.90111 -1.89154,1.20318 -1.81976,0.92063 -1.66318,0.54303 -2.45979,0.2483 z"
     id="path39" />
  <path
     inkscape:connector-curvature="0"
     style="fill:#bae3ff;fill-rule:evenodd;stroke:#000000;stroke-width:1px;stroke-opacity:1"
     d="m 294.8979,226.58238 -0.11262,-0.21403 -1.08891,-2.11983 -1.70474,-1.91255 -0.99067,-1.84738 -0.27541,-0.21725 0.16755,0.51058 0.23232,1.10033 0.81307,0.80393 1.38673,1.65987 0.75773,1.42855 z"
     id="path41" />
  <path
     inkscape:connector-curvature="0"
     style="fill:#e3ffba;fill-rule:evenodd;stroke:#000000;stroke-width:1px;stroke-opacity:1"
     d="m 296.779,232.05942 -1.06897,0.2149 -1.47533,-0.0525 -1.41979,-0.1926 0.0682,2.2422 -0.10105,1.91294 0.13607,1.74917 0.76793,-0.61671 1.17889,-0.51547 1.24396,-1.27554 1.27067,-1.57941 0.0264,-0.0439 -0.40003,-0.99845 z"
     id="path43" />
  <path
     inkscape:connector-curvature="0"
     style="fill:#ffd6ba;fill-rule:evenodd;stroke:#000000;stroke-width:1px;stroke-opacity:1"
     d="m 274.54325,252.18534 2.81657,-0.0111 2.75928,-0.0148 0.39103,-0.005 0.14013,-0.0617 2.45978,-0.2483 1.66319,-0.54303 1.81976,-0.92063 1.89154,-1.20318 1.68809,-0.90111 2.09247,-1.443 1.16961,-1.43564 1.84208,-1.2563 1.14219,-1.33586 0.98362,-1.95776 0.59591,-1.57159 0.14327,-2.77164 -0.0269,-0.69581 -0.45935,-1.28369 -0.2495,-0.62273 -0.0264,0.0439 -1.27067,1.57941 -1.24396,1.27554 -1.17889,0.51547 -0.76793,0.61671 0.0488,0.62715 -0.0986,2.18333 -0.4302,1.30831 -0.20884,1.47741 -1.03273,1.62626 -0.7127,0.89232 -1.72927,1.03566 -1.33619,0.30068 -1.01411,0.71069 -1.71146,0.006 -2.70366,-0.1361 -3.3995,0.14071 -2.63477,-1.60524 -2.17318,-0.90701 -1.61723,-1.65929 -1.00412,-0.90462 -1.18812,0.3882 -0.93804,0.0396 0.88108,1.84404 0.67389,1.84201 1.18347,1.72925 1.31472,1.80206 1.36016,1.42053 z"
     id="path45" />
  <path
     inkscape:connector-curvature="0"
     style="fill:#ffbae3;fill-rule:evenodd;stroke:#000000;stroke-width:1px;stroke-opacity:1"
     d="m 267.78625,234.40909 -0.32402,0.48162 0.0625,0.75422 0.66396,3.10677 0.47039,3.92027 0.37518,0.78523 0.93804,-0.0396 1.18812,-0.38819 -0.85039,-0.76612 -1.09348,-1.66792 -0.72928,-2.6367 -0.71181,-2.22985 z"
     id="path47" />
  <path
     inkscape:connector-curvature="0"
     style="fill:#e3ffba;fill-rule:evenodd;stroke:#000000;stroke-width:1px;stroke-opacity:1"
     d="m 289.17215,219.046 1.5534,1.22534 -0.78699,-2.39828 -1.12922,-1.93171 -0.49887,-1.61582 -0.81061,-0.0173 -1.69265,-0.10678 -1.55198,0.83064 -1.19969,0.55677 -1.25001,0.49943 -2.34937,0.41031 -1.50388,1.25548 -1.3091,0.35248 -2.5403,0.59765 -1.85658,0.71125 -0.79512,0.63098 -1.48176,0.4618 -0.60717,0.71998 -1.05781,1.71662 -0.48334,1.13498 -0.62625,1.66131 -0.0544,0.99732 2.02994,-0.67942 0.3474,-0.59159 1.32644,-1.64235 1.44418,-2.01594 2.22017,-0.76335 1.82285,-1.21137 2.1879,-0.68673 1.78721,-0.48696 2.34352,-0.33342 1.8241,-6.6e-4 1.75881,0.0969 1.56191,0.21209 z"
     id="path49" />
  <path
     inkscape:connector-curvature="0"
     style="fill:#bae3ff;fill-rule:evenodd;stroke:#000000;stroke-width:1px;stroke-opacity:1"
     d="m 298.17092,232.51661 -0.28667,-0.14669 0.0603,0.63668 0.18156,-0.30203 z"
     id="path51" />
  <path
     inkscape:connector-curvature="0"
     style="fill:#ffbae3;fill-rule:evenodd;stroke:#000000;stroke-width:1px;stroke-opacity:1"
     d="m 297.88425,232.36992 -0.74737,-0.38244 -0.35788,0.0719 0.227,0.84454 0.40003,0.99845 0.53851,-0.89581 z"
     id="path53" />
  <path
     inkscape:connector-curvature="0"
     style="fill:#bae3ff;fill-rule:evenodd;stroke:#000000;stroke-width:1px;stroke-opacity:1"
     d="m 297.65553,234.52514 0.45936,1.28369 -0.0654,-1.69433 -0.1049,-1.1079 -0.53851,0.89581 z"
     id="path55" />
  <path
     inkscape:connector-curvature="0"
     style="fill:#ffbae3;fill-rule:evenodd;stroke:#000000;stroke-width:1px;stroke-opacity:1"
     d="m 267.0383,243.53374 -0.005,0.0239 0.43784,2.341 0.16333,1.85421 0.83381,1.25782 0.97262,1.32219 1.23886,0.44928 1.79996,1.22426 1.97765,0.17933 0.0862,-3.3e-4 -0.0957,-0.0903 -1.36016,-1.42053 -1.31472,-1.80205 -1.18347,-1.72925 -0.67389,-1.84201 -0.88108,-1.84404 -1.22801,0.0519 z"
     id="path57" />
  <path
     inkscape:connector-curvature="0"
     style="fill:#bae3ff;fill-rule:evenodd;stroke:#000000;stroke-width:1px;stroke-opacity:1"
     d="m 277.35982,252.17421 -2.81657,0.0111 0.79092,0.74643 2.13231,-0.15352 1.7628,-0.0604 1.28085,-0.56355 -0.39103,0.005 z"
     id="path59" />
  <path
     inkscape:connector-curvature="0"
     style="fill:#ffbae3;fill-rule:evenodd;stroke:#000000;stroke-width:1px;stroke-opacity:1"
     d="m 267.15031,235.35437 0.31192,-0.46366 -0.19033,-2.2964 -0.0765,-2.77677 -0.11185,-2.03691 0.0569,-1.0422 -0.73356,0.24552 -2.06685,0.57558 -1.63781,0.66795 -1.50572,0.89118 -1.09348,0.88909 -0.33853,1.03932 -0.27782,1.33844 -0.007,2.06609 -0.0415,1.29072 0.52218,1.3918 -0.11278,2.08994 0.73759,2.12299 0.20491,0.90943 0.64257,1.25031 0.88982,0.35077 1.02217,0.1754 1.18285,0.0372 1.67007,-0.50936 0.84127,-0.0271 0.22768,-1.02487 -0.0801,-1.91372 -0.0855,-1.92125 -0.049,-1.70017 z"
     id="path61" />
  <path
     inkscape:connector-curvature="0"
     style="fill:#bae3ff;fill-rule:evenodd;stroke:#000000;stroke-width:1px;stroke-opacity:1"
     d="m 267.46223,234.89071 0.32402,-0.48162 0.007,-0.88432 -0.1733,-2.0348 0.18823,-2.75911 0.56258,-1.31058 0.79938,-1.36127 -2.02994,0.67942 -0.0569,1.0422 0.11185,2.03691 0.0765,2.77677 z"
     id="path63" />
  <path
     inkscape:connector-curvature="0"
     style="fill:#bae3ff;fill-rule:evenodd;stroke:#000000;stroke-width:1px;stroke-opacity:1"
     d="m 292.81491,232.02917 -0.40601,-0.0551 -1.1422,0.53169 -0.16435,0.0665 0.53356,0.93166 0.3575,2.03805 -0.0463,1.23416 0.0775,1.40954 0.64111,-0.0495 0.25242,-0.20272 -0.13607,-1.74917 0.10105,-1.91294 z"
     id="path65" />
  <path
     inkscape:connector-curvature="0"
     style="fill:#ffbae3;fill-rule:evenodd;stroke:#000000;stroke-width:1px;stroke-opacity:1"
     d="m 287.90961,240.40862 -0.13106,-0.92334 -2.34799,0.40681 -2.15781,0.6913 -2.51321,0.57407 -2.76946,0.63859 -2.88576,0.50298 -2.50073,0.25884 -1.44315,0.47153 1.00412,0.90461 1.61723,1.65929 2.17318,0.90701 2.63477,1.60524 3.3995,-0.14071 2.70366,0.1361 1.71146,-0.006 1.01411,-0.71069 1.33619,-0.30068 1.72927,-1.03566 0.7127,-0.89231 1.03273,-1.62627 0.20884,-1.47741 0.4302,-1.30831 0.0985,-2.18332 -0.0488,-0.62715 -0.25242,0.20271 -0.64111,0.0495 0.0125,0.22735 -0.0106,1.80039 0.31708,1.47306 -0.63653,1.49324 -0.74467,0.39714 -1.08857,0.56786 -1.10481,-0.73239 -0.49797,-1.17388 -0.44931,-0.73388 z"
     id="path67" />
  <path
     inkscape:connector-curvature="0"
     style="fill:#bae3ff;fill-rule:evenodd;stroke:#000000;stroke-width:1px;stroke-opacity:1"
     d="m 289.39108,233.26475 1.71127,-0.69246 -0.27555,-0.48114 -0.39123,-1.25673 -0.79907,-1.30964 -1.26525,-0.72726 -1.55654,-0.20687 -1.53903,0.2459 -1.79961,-0.1084 -1.31674,0.34683 -1.32029,0.0272 -2.11654,0.43979 -2.03478,0.38133 -1.86326,0.4787 -1.88868,0.42154 -1.42716,0.33498 -1.06743,0.35261 -1.53804,1.03358 -0.6497,1.16988 -0.4672,0.69444 -0.0108,1.31972 0.71181,2.22985 0.72928,2.6367 1.09348,1.66792 0.85038,0.76612 1.44315,-0.47153 2.50074,-0.25884 2.88576,-0.50298 2.76945,-0.63859 2.51322,-0.57407 2.15781,-0.6913 2.34799,-0.40681 -0.0309,-0.21761 0.0957,-1.97878 0.025,-1.41341 0.42232,-1.01995 0.6889,-0.78326 z"
     id="path69" />
  <path
     inkscape:connector-curvature="0"
     style="fill:#e3ffba;fill-rule:evenodd;stroke:#000000;stroke-width:1px;stroke-opacity:1"
     d="m 292.4089,231.97409 0.40601,0.0551 -0.0157,-0.51668 -0.11295,-3.81861 -1.07508,-3.51107 -0.48574,-2.30056 -0.4904,-0.48488 -1.39317,-1.11128 -1.40375,-0.006 -1.77987,0.63607 -3.08353,0.81002 -2.19517,0.66251 -3.12682,0.35769 -3.45703,1.34941 -2.06949,0.4112 -2.61013,1.43676 -0.34569,0.11571 -0.79939,1.36126 -0.56257,1.31059 -0.18823,2.75911 0.17329,2.0348 -0.007,0.88432 0.4672,-0.69445 0.6497,-1.16988 1.53804,-1.03357 1.06743,-0.35261 1.42715,-0.33499 1.88868,-0.42153 1.86327,-0.47871 2.03478,-0.38132 2.11654,-0.4398 1.32029,-0.0272 1.31674,-0.34682 1.79961,0.1084 1.53903,-0.24591 1.55654,0.20688 1.26525,0.72726 0.79906,1.30963 0.39124,1.25673 0.27554,0.48114 0.16436,-0.0665 z"
     id="path71" />
  <path
     inkscape:connector-curvature="0"
     style="fill:#ffbae3;fill-rule:evenodd;stroke:#000000;stroke-width:1px;stroke-opacity:1"
     d="m 295.71003,232.27432 1.06897,-0.2149 -0.37247,-1.38577 -0.49812,-2.17068 -1.01051,-1.92059 -0.81495,-0.80778 -0.75773,-1.42855 -1.38673,-1.65987 -0.81307,-0.80393 0.48574,2.30056 1.07508,3.51107 0.11295,3.81861 0.0157,0.51668 1.41979,0.1926 z"
     id="path73" />
  <path
     inkscape:connector-curvature="0"
     style="fill:#bae3ff;fill-rule:evenodd;stroke:#000000;stroke-width:1px;stroke-opacity:1"
     d="m 297.13688,231.98748 0.74737,0.38244 -0.0154,-0.16309 -0.86046,-1.66831 -0.37384,-1.63045 -1.21973,-1.81335 -0.51688,-0.51234 1.01051,1.92059 0.49813,2.17068 0.37247,1.38577 z"
     id="path75" />
  <path
     inkscape:connector-curvature="0"
     style="fill:#ffbae3;fill-rule:evenodd;stroke:#000000;stroke-width:1px;stroke-opacity:1"
     d="m 297.88425,232.36992 0.28667,0.14669 0.42267,-1.77269 -0.15351,-1.29171 -0.18821,-2.00287 -0.30359,-1.65729 -0.76643,-1.12589 -0.73035,-1.54334 -0.94368,-1.40155 -1.11147,-1.36034 -0.47587,-1.17825 -0.6493,-1.56237 -0.64878,-2.0582 -1.0496,-0.71251 -1.29173,-0.49703 -1.54815,-0.018 -0.42245,-0.009 0.49887,1.61582 1.12922,1.93171 0.78699,2.39828 0.27541,0.21725 0.99067,1.84738 1.70474,1.91255 1.08891,2.11983 0.11262,0.21403 0.51687,0.51234 1.21973,1.81335 0.37385,1.63045 0.86046,1.66831 z"
     id="path77" />
  <path
     inkscape:connector-curvature="0"
     style="fill:none;fill-rule:evenodd;stroke:#ffffff;stroke-width:1px;stroke-opacity:1"
     d="m 267.033,243.55759 0.005,-0.0239 -0.84126,0.0271 -1.67008,0.50936 -1.18284,-0.0372 -1.02218,-0.17541 -0.88982,-0.35076 -0.64256,-1.25032 -0.20492,-0.90943 -0.73758,-2.12299 0.11278,-2.08993 -0.52218,-1.3918 0.0415,-1.29072 0.007,-2.0661 0.27781,-1.33844 0.33853,-1.03932 1.09348,-0.88909 1.50572,-0.89118 1.63781,-0.66794 2.06685,-0.57559 0.73356,-0.24552 0.0544,-0.99731 0.62626,-1.66132 0.48334,-1.13497 1.0578,-1.71662 -0.11079,0.13137 -1.30375,0.38201 1.30375,-0.38201 0.11079,-0.13137 0.0729,-0.11824 1.22704,-1.40994 1.85663,-0.70163 1.52499,-1.28613 1.48962,-1.17715 1.88176,-0.99749 3.13468,-0.76738 2.1142,-0.48818 1.97611,-0.28744 2.10927,0.13988 1.55078,0.15772 0.0103,0.0333 0.42245,0.009 1.54815,0.018 1.29173,0.49702 1.0496,0.71251 0.64878,2.0582 0.6493,1.56237 0.47588,1.17826 1.11146,1.36033 0.94369,1.40155 0.73034,1.54334 0.76643,1.12589 0.30359,1.65729 0.18821,2.00287 0.15351,1.29171 -0.42267,1.77269 0.28494,0.14581 0.95164,1.46632 1.25998,1.15346 1.68589,1.34159 1.00362,1.07959 1.34613,1.04778 0.53501,0.83507 1.09253,1.16286 0.54997,1.10108 0.42364,1.26763 0.25668,1.82867 0.13052,1.70626 -0.30442,1.45755 -0.54975,1.29686 -0.53356,0.85301 -0.62856,1.49444 -0.31117,1.19255 -0.51591,1.70942 -0.59591,0.88773 -0.24962,1.31936 0.0935,1.52103 0.12984,1.46904 -0.12984,-1.46904 -0.0935,-1.52103 0.24962,-1.31936 0.59591,-0.88773 0.51591,-1.70942 0.31117,-1.19255 0.62856,-1.49444 0.53356,-0.85301 0.54975,-1.29686 0.30442,-1.45755 -0.13052,-1.70626 -0.25668,-1.82867 -0.42364,-1.26763 -0.54997,-1.10108 -1.09253,-1.16286 -0.53501,-0.83507 -1.34613,-1.04778 -1.00362,-1.07959 -1.68589,-1.34159 -1.25998,-1.15346 -0.95164,-1.46632 -0.28494,-0.14581 -0.0448,0.18796 -0.18157,0.30204 0.1049,1.10789 0.0654,1.69433 0.46801,1.30787 0.32408,2.74238 0.0334,1.74203 -0.49523,1.48973 -0.19907,1.38901 -1.46738,1.66403 -0.85586,1.33225 -1.94074,1.64122 -2.4775,0.40723 -2.46355,1.10252 -3.25044,1.08007 -2.45649,0.41056 -2.82396,0.0366 -1.28085,0.56355 -1.7628,0.0604 -2.1323,0.15353 -0.79093,-0.74643 -0.0862,3.3e-4 -1.97764,-0.17933 -1.79997,-1.22426 -1.23886,-0.44928 -0.97262,-1.32219 -0.83381,-1.25782 -0.16332,-1.85421 z"
     id="path81" />
</svg>
