<?xml version="1.0" encoding="UTF-8" standalone="no"?>
<svg
   xmlns:dc="http://purl.org/dc/elements/1.1/"
   xmlns:cc="http://creativecommons.org/ns#"
   xmlns:rdf="http://www.w3.org/1999/02/22-rdf-syntax-ns#"
   xmlns:svg="http://www.w3.org/2000/svg"
   xmlns="http://www.w3.org/2000/svg"
   xmlns:sodipodi="http://sodipodi.sourceforge.net/DTD/sodipodi-0.dtd"
   xmlns:inkscape="http://www.inkscape.org/namespaces/inkscape"
   width="1199"
   height="799"
   viewBox="0 0 1199 799"
   id="svg2"
   version="1.1"
   inkscape:version="0.91 r13725"
   sodipodi:docname="drag_line_bryce.svg">
  <metadata
     id="metadata35">
    <rdf:RDF>
      <cc:Work
         rdf:about="">
        <dc:format>image/svg+xml</dc:format>
        <dc:type
           rdf:resource="http://purl.org/dc/dcmitype/StillImage" />
        <dc:title></dc:title>
      </cc:Work>
    </rdf:RDF>
  </metadata>
  <defs
     id="defs33" />
  <sodipodi:namedview
     pagecolor="#ffffff"
     bordercolor="#666666"
     borderopacity="1"
     objecttolerance="10"
     gridtolerance="10"
     guidetolerance="10"
     inkscape:pageopacity="0"
     inkscape:pageshadow="2"
     inkscape:window-width="1920"
     inkscape:window-height="1017"
     id="namedview31"
     showgrid="false"
     inkscape:zoom="1.9216013"
     inkscape:cx="281.34513"
     inkscape:cy="449.94239"
     inkscape:window-x="-8"
     inkscape:window-y="-8"
     inkscape:window-maximized="1"
     inkscape:current-layer="svg2" />
  <path
     style="fill:#000000;fill-rule:evenodd;stroke:#ffffff;stroke-width:1px;stroke-opacity:1"
     d="M 1,1 1200,1 1200,800 1,800 z"
     id="face 1" />
  <path
     style="fill:#bae3ff;fill-rule:evenodd;stroke:#000000;stroke-width:1px;stroke-opacity:1"
     d="M 137.79198521210625,413.3301880055053 136.11386166372674,413.4820815958871 134.68555350878268,414.78782011746824 131.71729020483997,416.5497121000196 128.80513846951516,419.75860828796624 127.82441683260423,422.86587425852633 125.08063782263686,425.37318311859707 125.47747302923418,430.0888954519685 127.42705406532797,434.4066070415229 130.19758930526987,437.93387116645806 134.65045445692104,438.3893521282118 134,435.015625 134.65045445692104,438.3893521282118 135.99764277366526,438.527155230097 140.3279844723612,438.1675239071575 145.50326852620384,438.7795032950151 147.0452283884961,436.08321068124616 149.22848418657844,434.6287320329887 150.5293741950287,431.3046080625394 150.0543736561434,427.51862743659086 150.49284064368535,423.2210243663028 148.6736724345699,421.13754172529957 146.8642276899469,418.2037680499831 144.8324049104291,417.0810101851785 143.54807826601274,416.98507168793884 143,421.015625 143.54807826601274,416.98507168793884 141.97309367796308,416.86742120142895 139.13205232935215,414.5462875042817 141.97309367796308,416.86742120142895 143.54807826601274,416.98507168793884 143.56579722928194,416.85476689294944 141.94135520562196,413.2329619957042 z"
     id="path5" />
  <path
     style="fill:#bae3ff;fill-rule:evenodd;stroke:#000000;stroke-width:1px;stroke-opacity:1"
     d="M 129.31559793649294,362.07051248093467 128.54986563408062,362.11213346366617 128.5518434414653,362.8035292155783 128.07123432031185,367.94413562655143 130.44798008095594,370.06770830966394 132.3909845549186,373.8169716068821 136.90905851424355,375.10741639482035 141.51474540734313,375.0438281733203 147.24366119352982,375.88836912575715 152.684639564887,375.01931890117044 154.1704607197545,372.09625658605205 156.99641415894365,369.74458553674486 156.44777903372486,366.6322788187489 156.99970828214853,363.2568663523743 156.7503420741567,360.5562286350328 155.67148421660755,358.5029134865612 154.0951181257576,356.9388357929465 153.80936706409761,354.6819132984481 151.00468342573842,353.31336463037036 149.68041659979576,352.0071010762744 148.34867487038582,349.6990733328879 146.33991762297651,349.6346604505966 148,350.015625 146.33991762297651,349.6346604505966 145.781073143471,349.61674052337594 146.33991762297651,349.6346604505966 144.07610556786562,349.1151487977739 141.93502081331624,347.18478413239364 137.14194559629345,347.32231791013345 133.43675039473877,349.045203446124 131.34997383008823,352.3577161046459 129.87729631552384,355.69271375527734 128.53930381180794,358.41996449499595 128.54986563408062,362.11213346366617 129.31559793649294,362.07051248093467 133.35961587080163,362.3304732089813 136,364.015625 133.35961587080163,362.3304732089813 z"
     id="path7" />
  <path
     style="fill:#bae3ff;fill-rule:evenodd;stroke:#000000;stroke-width:1px;stroke-opacity:1"
     d="M 207.21953992225107,431.86211291464156 205.7254742302225,431.6903652825146 200.79239551482735,430.8422116798206 195.42656775558612,430.36523345823935 191.04770596763024,430.9150948675123 189.14776623785937,430.5659045234266 188.71125914924463,431.4600936575285 188.41419487682603,435.9565718127401 188.55088446679065,440.4592671976906 192.34356887424795,439.5803172867824 196.05713619894314,439.0208869564036 200.17874733048743,439.58824801852086 203.36750296120482,439.9625853809631 206.82582913258966,437.84601281215646 206.91939773915163,433.9180948277099 z"
     id="path9" />
  <path
     style="fill:#bae3ff;fill-rule:evenodd;stroke:#000000;stroke-width:1px;stroke-opacity:1"
     d="M 286.85472349875573,445.4520763983369 284.6863409591945,445.8569369773774 280.97854851575397,442.9485963902503 276.4566571360097,440.83964400717196 272.4203648976946,440.60145829425784 268.65583852734056,438.7476847991293 267.24843956653126,437.9830671140859 265.0925114839897,440.045823136922 265.7437632172154,443.41145399815554 268.4060189993221,444.56663163526184 270.89439940703977,446.06786232480016 273.2525051564643,447.17540693208934 276.1318818999906,448.10101075669917 277.9472432236317,450.67281467686314 278.89038493288353,452.90172666335684 281.4428757007874,453.5145857884747 282.68966126369224,450.4802610632173 285.9129382397095,449.58786515660324 286.72097325427944,445.6334054036354 z"
     id="path11" />
  <path
     style="fill:#bae3ff;fill-rule:evenodd;stroke:#000000;stroke-width:1px;stroke-opacity:1"
     d="M 405.8622442175366,439.21526582449235 401.1908916240977,439.67757178016507 396.4350108080245,439.6188694432847 390.377164650588,439.0436169974647 383.55223651488524,439.46412763407307 378.5871591428991,439.2900915451637 373.64713264656984,439.09916036524345 368.619662220095,439.15296919290614 368.9985582347891,439.7851290920189 371.56713831366994,442.0729313451256 371.2609752391472,445.8714081444844 374.23492945845715,446.4942980535207 377.02708858597356,447.66347840307645 380.68159086245635,449.2192958028668 383.7045487651059,450.98271990932096 387.1612032658769,450.60052494558005 391.5395367098715,450.7053488353719 394.39684965020473,450.98223259523763 397.7837567393043,450.8084227348143 400.87116263247714,449.5870993498613 404.72226442095143,447.4967076558256 405.735071921391,444.45769846153325 405.36953800600867,440.19867567000716 z"
     id="path13" />
  <path
     style="fill:#ffbae3;fill-rule:evenodd;stroke:#000000;stroke-width:1px;stroke-opacity:1"
     d="M 162.8914377567102,435.16591184131227 165.99813112925327,434.2762631169376 166.26431811232175,433.2732877242109 169.65760200321878,431.9729626327907 170.72075847291492,427.84003460990607 171.08614575765392,423.2999167164745 171.6342609678128,418.73833614846507 171.82978361582062,414.40132254505227 169.02818561752696,411.9476395061883 167.28969806858154,408.6929549394191 166.876985780111,403.290136667207 162.61918652749696,400.56616905529216 157.72278236026122,398.3119002744187 154.227057417032,395.3170544912498 149.34154860682239,394.7706141124725 144.4778023251765,394.4531225026368 138.27525681735455,394.1095338394523 133.9215732684214,394.78326348829546 136.25186134016968,392.0572987895393 140.07901433383992,392.1756695291566 143.69689349698095,393.0035711364015 147.54133029291654,391.8684315701141 150.7785590383143,391.6922267719693 154.46245412495202,390.177847392579 156.42173286939263,388.26501008845577 160.35415970416219,387.9367061994186 164.65082065603053,385.8215526358464 168.60137673204534,383.90916451411283 172.5788732318663,381.96517186865844 174.13094005966155,379.0808040244432 176.86486789575875,377.31571963414416 178.7236131875767,374.8392417074833 179.61061819085154,370.72223908508835 179.82408580513493,366.0978631101726 179.465883712346,362.02656074783073 177.30045129540977,358.8866893860854 176.95980748855314,352.15659226249346 172.3223117481912,349.7491545838452 170.04660512175857,345.72908495285367 167.6043263167911,340.916355389809 163.4377667397427,338.3052316204718 158.59863276630267,336.72447220881213 155.03745278963035,334.26752052768785 152.0792234147908,331.8891935674071 148.13394945042847,330.46753472945693 144.15512077064255,329.75263913113025 139.44081027429385,329.18951919355584 134.94123691817,329.05158118381513 132.18026216697248,331.5979535280238 126.75822684818917,331.3675180249061 121.22305464857504,331.1905534560092 118.33241216155832,331.27213636217294 118.32955316108733,331.3889173676887 118.80697479878334,336.97828429902455 118.29532976847653,341.68561426204843 118.45115492302227,346.4321713895848 118.64545998750125,350.8749547765626 118.13108419552219,355.26840282134174 118.33547023332432,361.26743545061856 118.38773727514969,362.5650511700125 118.88021240978817,362.4854850167797 121.17602465185827,362.93832242176427 125.77037715580505,362.26321112042984 128.54986563408062,362.11213346366617 128.53930381180794,358.41996449499595 129.87729631552384,355.69271375527734 131.34997383008823,352.3577161046459 133.43675039473877,349.045203446124 137.14194559629345,347.32231791013345 141.93502081331624,347.18478413239364 144.07610556786562,349.1151487977739 146.33991762297651,349.6346604505966 148.34867487038582,349.6990733328879 149.68041659979576,352.0071010762744 151.00468342573842,353.31336463037036 153.80936706409761,354.6819132984481 154.0951181257576,356.9388357929465 155.67148421660755,358.5029134865612 156.7503420741567,360.5562286350328 156.99970828214853,363.2568663523743 156.44777903372486,366.6322788187489 156.99641415894365,369.74458553674486 154.1704607197545,372.09625658605205 152.684639564887,375.01931890117044 147.24366119352982,375.88836912575715 141.51474540734313,375.0438281733203 136.90905851424355,375.10741639482035 132.3909845549186,373.8169716068821 130.44798008095594,370.06770830966394 128.07123432031185,367.94413562655143 128.5518434414653,362.8035292155783 128.54986563408062,362.11213346366617 125.77037715580505,362.26321112042984 121.17602465185827,362.93832242176427 118.88021240978817,362.4854850167797 118.38773727514969,362.5650511700125 118.50454043501018,365.4648827085233 118.48942822847606,370.7041171005365 118.85781353327843,375.53166561946995 118.27559785481058,379.70887989710513 116.07059428979233,384.3241480220473 115.43399181187763,389.0544231015471 115.14157622078868,393.52787916781705 115.51076267943505,398.8788775354843 113.07279390517233,403.0249382313773 113.34038729412457,407.97229130581627 112.18305891319784,413.42887949454814 112.36217392938946,419.03916833235775 111.07944364404291,422.8994782358528 111.18886361483595,426.4340399407842 116,426.015625 111.18886361483595,426.4340399407842 111.23197526758695,427.82666320457764 111.93984602317789,432.6720497029006 109.08308975587259,435.48845825346535 109.44848216036718,440.83240081758856 108.8328080836441,442.78230197030194 110.00126165745553,444.5064281821706 114.49011152447163,444.02733129572727 118.04616491471356,444.0224628887234 121.98345052025869,444.6897201859183 125.94208591553699,444.03708454076474 128.8593768933271,444.2590074470742 131.67714501787407,444.4337547816853 134.69382443080576,444.4156518662366 134.99036300434727,440.1523636278812 134.65045445692104,438.3893521282118 130.19758930526987,437.93387116645806 127.42705406532797,434.4066070415229 125.47747302923418,430.0888954519685 125.08063782263686,425.37318311859707 127.82441683260423,422.86587425852633 128.80513846951516,419.75860828796624 131.71729020483997,416.5497121000196 134.68555350878268,414.78782011746824 136.11386166372674,413.4820815958871 134.56768250231957,413.62203237866856 131.35239551094963,413.1339416054574 134.56768250231957,413.62203237866856 136.11386166372674,413.4820815958871 137.16196231197975,412.5239232417666 142,412.015625 137.16196231197975,412.5239232417666 136.11386166372674,413.4820815958871 137.79198521210625,413.3301880055053 141.94135520562196,413.2329619957042 143.56579722928194,416.85476689294944 143.54807826601274,416.98507168793884 144.8324049104291,417.0810101851785 146.8642276899469,418.2037680499831 148.6736724345699,421.13754172529957 150.49284064368535,423.2210243663028 150.0543736561434,427.51862743659086 150.5293741950287,431.3046080625394 149.22848418657844,434.6287320329887 147.0452283884961,436.08321068124616 145.50326852620384,438.7795032950151 140.3279844723612,438.1675239071575 135.99764277366526,438.527155230097 134.65045445692104,438.3893521282118 134.99036300434727,440.1523636278812 134.69382443080576,444.4156518662366 135.82447610559322,444.40886689214125 139.06961404313003,444.8034231003109 143.81194091137738,444.72844323456906 147.0629214264705,444.8594743411503 151.1350649015655,443.90317498173437 154.98810969910502,443.6351454893376 157.16878823782588,441.8670770439511 160.96494402762906,440.49994467484976 162.1925999514314,437.3865765610255 165.48673999749332,436.2031519350958 165.99813112925327,434.2762631169376 162.8914377567102,435.16591184131227 157,435.015625 z"
     id="path15" />
  <path
     style="fill:#ffbae3;fill-rule:evenodd;stroke:#000000;stroke-width:1px;stroke-opacity:1"
     d="M 205.7254742302225,431.6903652825146 207.21953992225107,431.86211291464156 207.53659077825054,429.6903061438425 207.61723794799323,425.24460184963516 207.81207894770776,421.3917683200201 209.53137311691484,419.31351556247483 210.6820885191154,416.03038026333223 211.0534292665922,412.57334511741726 212.5255966014635,408.94174522447435 215.24565930534752,406.6564185238819 216.76082041369511,402.41259823360997 219.49977082763263,400.6013699528181 222.34028251902507,399.14885826040944 225.58804011703634,399.51051483459327 228.2728461982397,399.9054354931341 231.59745661845162,399.56914518837635 233.9669105453888,400.2076823981849 236.1481764513051,402.65220052179325 239.7389807054792,403.0337438526089 240.50171980487792,406.6887854039844 241.3665842775917,409.1026623278892 243.55397418123516,407.2580925386877 245.2335499824647,405.05075925605274 248.71449391417994,403.70940756427325 250.79170028442076,401.13528278660476 252.93091056787318,398.8399277799114 251.008125497192,394.267849405852 248.55123899477573,391.57298750523574 245.27405884370341,389.5805513373208 242.95956723698214,386.3310118315975 240.78592624708256,383.1612427461934 236.37010345143207,383.9755057127955 231.71380339048446,383.64981751440047 225.94968266055432,383.51068828877936 221.69835451071796,384.59018908114444 219.8433067007296,387.29826405406146 216.6196342126203,388.82792881405084 213.58302797874447,391.30115981915986 211.71775380724466,395.50473212174376 208.620763899609,397.3207126516761 205.50733875531384,399.0954859180092 206.14584509944294,395.48558443912896 208.44515062970333,393.2477385792001 209.98970733511493,389.55596729820417 209.82517384691775,385.678765911204 209.47574577264294,381.26995778327125 204.49789469662338,381.2316486640934 199.63337706734572,381.4793817604726 195.68066059615288,381.754936148904 195.0537862657351,381.6733514152986 195.0531262207976,381.7119218203057 195.2522070577942,386.39554469173555 195.0897839743407,390.5275634653542 195.08573901880374,395.23690426231445 195.6936973793097,399.78463143721626 195.45336703477133,404.5414517875396 194.96560422290298,408.2634619522793 194.04068877614102,412.82152796740564 194.62516938026587,416.23730809562386 192.94076010089844,419.8684211037114 192.33992468358824,422.99840495472284 191.09883626860855,425.1345603112487 190.1208785354063,428.5724742552291 189.14776623785937,430.5659045234266 191.04770596763024,430.9150948675123 195.42656775558612,430.36523345823935 200.79239551482735,430.8422116798206 z"
     id="path17" />
  <path
     style="fill:#ffbae3;fill-rule:evenodd;stroke:#000000;stroke-width:1px;stroke-opacity:1"
     d="M 284.6863409591945,445.8569369773774 286.85472349875573,445.4520763983369 289.77270507322305,441.49608589940914 290.9074084788219,438.64038490379534 293.73599539077156,435.25747130403204 295.08059203908687,432.62269032370295 298.40321276489385,429.496659422182 299.80098772103037,426.01640604431657 302.87274741920066,424.6724402859995 305.6461880657612,421.5691802573963 307.7856308742527,418.82119636633377 310.3033050520631,416.65743634142007 314.91999419349696,413.4251429139934 317.7025007681242,410.276279680011 320.88660249626184,407.14769768619595 323.55563606013175,404.76718716407663 326.0851940648105,401.29302095638 329.57383641888117,399.80072895554565 330.55410378853696,396.35578112312555 333.9941057481128,393.1171690675885 337.17991076399863,390.5336365062902 340.02343587415936,387.1183601431099 340.4336506675078,382.09452436602083 337.4096460983738,379.41009699960233 334.00436460098024,377.9890124297171 330.6168662913763,375.4500192133847 327.2773347765307,373.42287487910534 323.2763414213242,373.8654289033424 321.7515142600206,376.11318843230526 319.4800928824232,378.7937602004287 316.165778113788,381.6482312514858 314.376480856081,384.9095792973905 311.22438793113236,387.10408895335775 307.8190421553285,388.57870074154596 305.9151724129502,391.4776504967957 301.7335197465204,391.76884073057545 301.34014231863574,386.4929889696223 298.5991371350233,382.37128731282354 296.6785265734568,377.7305291179818 294.16908530917493,373.4249321776518 290.3472341124857,371.15637110491974 288.51753137036724,374.2567446899903 284.9966844766659,376.73456532155507 281.36995220168956,379.77429114728113 278.0695544683364,380.4661593239122 273.3281135498229,381.915339918444 274.39122256237033,382.9719521488071 275.5770163133543,384.8724950409236 277.68313772106507,385.62078357482136 280.5309315356295,386.9284104064517 281.4511791544765,389.58424448121553 284.53482635062636,390.93841439338917 285.9708481803908,392.5510140904198 287.9573982158884,393.2621564185042 289.15812732073977,395.4297723137026 291.0179977517053,397.09283393367275 293.4462771072751,399.550666238119 296.01307165791644,403.8651518477827 294.42870963420125,405.458265362675 292.0267991905472,407.5411381015164 291.04763408961827,410.18094255919976 288.15083008855083,413.7272240176953 287.865474705146,417.5493780861375 284.1392044715019,418.9408303058165 283.3994501580734,421.8516831634585 281.4188137405287,423.62318513041316 279.86042099368916,426.07648432240404 277.39675003100416,428.8133302762216 275.57818303414234,431.4888504358304 272.1236692735987,432.8224015781292 270.54395810896,435.85929746496896 268.0944738277949,437.1735956469811 267.24843956653126,437.9830671140859 268.65583852734056,438.7476847991293 272.4203648976946,440.60145829425784 276.4566571360097,440.83964400717196 280.97854851575397,442.9485963902503 z"
     id="path19" />
  <path
     style="fill:#ffbae3;fill-rule:evenodd;stroke:#000000;stroke-width:1px;stroke-opacity:1"
     d="M 401.1908916240977,439.67757178016507 405.8622442175366,439.21526582449235 407.2811652047792,436.38319097701947 408.22905279025366,431.84634397494386 408.2100001015681,426.51549081354574 404.18974405817545,424.9502233417474 399.3807472059869,424.1227724692611 395.2031099491399,424.91208012309437 390.9691118496974,423.93402807708435 388.1609596092328,420.6207981548167 387.334814460241,416.45513840972495 387.7217485525944,410.80757290254434 387.16213381188885,405.45712541090467 390.42226833780416,401.62071469985136 392.7505123212066,399.6186682848266 395.89375528417816,395.9510851164174 400.06346075625066,392.19693500664283 404.9730599257329,392.4634497062811 407.9547621086326,392.69283860780155 410.72244210074604,392.7607592446031 412.7527796082505,389.95812846070885 413.98504719578176,386.77625229757206 415.31124597637336,382.95064556453394 416.5557773889004,378.39533672927325 416.6245441128006,378.30025058519874 414.5592036728972,376.4750251141953 409.65957317157626,375.6469850677933 405.2720445812016,374.1717494016057 401.1268352934936,374.28727832948283 397.47628226001655,373.29862936291755 392.7540422167465,373.47896963504786 388.5763913695096,373.8100552570573 386.42014945321637,375.7780163086874 383.4482498518437,376.96370351604446 379.713972121026,377.39711662779354 377.0586902233389,381.05191625447327 374.7315205988628,384.07249583589436 371.9344632618823,388.100243141403 369.893653951,391.8471358933701 366.50488716246537,394.11757609702823 365.43163747711463,397.46217125038834 364.8014174957407,401.6766647396086 364.8377137746601,404.4196185032523 362.43347769220037,407.77383780146425 362.6649523356086,410.6941526056123 362.71010927238984,413.91344500112945 362.57926681711615,416.8809443518379 362.25990802115257,421.61485144124043 362.2641812702053,425.0477356634292 363.70710476901894,428.99097033856594 364.19978885660123,431.6999095823486 364.3785725503249,434.6684939720777 366.4611882511963,435.596278318901 367.81921482685306,437.8174820836911 368.619662220095,439.15296919290614 373.64713264656984,439.09916036524345 378.5871591428991,439.2900915451637 383.55223651488524,439.46412763407307 390.377164650588,439.0436169974647 396.4350108080245,439.6188694432847 z"
     id="path21" />
  <path
     style="fill:#e3ffba;fill-rule:evenodd;stroke:#000000;stroke-width:1px;stroke-opacity:1"
     d="M 444.1530088409305,442.8140464120549 447.2336033012055,442.79683738401184 443.67891290357267,440.15777916952027 441.9407743667216,436.9324569926892 438.90001056258603,433.7167205719273 438.5957164980965,428.35389766737285 438.219569354188,422.9391358279822 439.02851549478623,418.5185455381957 439.4483278897694,414.2799578582739 441.90417233152283,410.4451827113594 442.6181535478984,407.2643569643408 442.44101965928434,402.29610700552746 444.2422653123925,398.7857060868722 445.18392172980674,394.59622691181124 446.62162063015,389.38290819764694 449.4088422974574,388.2523460841163 451.9803945441003,385.59759147371346 455.22881728466746,384.77155213018506 457.3921533331007,382.1390858194477 461.7729591260577,381.60858596111524 464.48749566968183,380.15182925437364 468.6386820903081,378.31939503387514 472.0958814565624,378.07632979437835 477.348718711118,378.6522509251963 481.64451904000424,378.5493936987433 486.2928433477757,378.50594786923773 491.18624634777643,378.4110930082584 495.16214521072664,378.84444910954414 497.85227330812944,380.90826220283947 500.06369631553093,381.11615909182143 503.9500113146892,382.85866022152834 506.66985593446765,383.1408269731007 507.40092775286377,386.34997769633605 509.59145391818987,388.26293928894546 511.6939505515227,390.4676674352418 512.8390614074688,392.34009269317835 512.2536125360747,395.8231639380446 512.2617496296152,399.36255079760434 512.3375518333419,403.4091974753339 512.9316850752647,406.19689585536344 511.8988218350255,409.981523192007 506.6790258460331,409.3735000126848 501.6752352212691,409.0203294355525 495.97737736240674,409.5801270185895 490.6433757245351,409.0772160755552 486.669699438785,409.6075455040978 486.81015963452035,411.06062101956473 486.0375905260894,415.93202151612917 487.4753266221686,419.373752508817 486.0375905260894,415.93202151612917 486.81015963452035,411.06062101956473 486.669699438785,409.6075455040978 485.80630116499384,409.7227752007861 480.6666665572998,409.15041507397757 476.327289469744,409.66067502258835 473.19584662226316,410.46548411183727 470.4899514747728,410.7656333365304 469.35415199647736,411.7750679429005 468.61612386281416,414.752164639889 466.4931508668751,416.57330653892825 464.7996189229874,419.1275869106384 462.20660421867484,421.8608516826502 460.30637463384096,425.45226157839556 459.81366828026194,429.9624400363369 459.9828691645348,433.06308117967524 461.7440415060424,434.59821679809505 462.9437744618855,437.7922260890157 463.09610084591196,440.055912024706 466.84381202658415,441.1266875766972 469.01079685085415,442.9522324509771 471.6935193735099,444.2941935605026 476.016307545081,444.9157218922448 480.57618357559284,444.1166881001363 484.67637262063477,444.17052548367144 487.4579384399933,444.97902853621207 490.3619260605169,444.90383716226523 494.19410258330936,443.15208306054916 498.04392635569496,443.7926108027041 503.36096628402265,442.5951858656757 507.8544517291319,442.6266459644471 510.6104314347094,442.9591216794297 510.2909828990418,446.91896373631323 510.0915849399586,449.93709309820787 510.66453108508836,453.98178594822207 506.7716526109333,455.1657647736782 502.54916106932205,455.5756463583684 496.76751029684294,455.2635607276347 492.1343000553012,455.9159989436051 487.63809352364746,455.2984862509784 483.0211814971965,455.1228888850091 477.46485207656855,455.10795098932607 472.90776316483147,453.7918831763446 467.09098790445825,452.67528961278884 463.04636136991695,451.3014275006579 459.4938126558029,448.90606350137887 455.5229134801201,447.10768050129536 452.4113345586084,444.71280511482695 448.27913904766996,443.573059611998 447.2336033012055,442.79683738401184 444.1530088409305,442.8140464120549 439.3457236307181,442.5794290676902 435.75082777007935,440.1146837568653 430.7709881893838,440.6005059436049 426.674462560752,439.14872947015016 420.5650812051306,439.2919294255706 416.537298205464,439.89746469665465 411.4210529457444,440.0079852537116 405.9395504583465,439.20761512058544 405.8622442175366,439.21526582449235 405.36953800600867,440.19867567000716 405.735071921391,444.45769846153325 404.72226442095143,447.4967076558256 400.87116263247714,449.5870993498613 397.7837567393043,450.8084227348143 394.39684965020473,450.98223259523763 391.5395367098715,450.7053488353719 387.1612032658769,450.60052494558005 383.7045487651059,450.98271990932096 380.68159086245635,449.2192958028668 377.02708858597356,447.66347840307645 374.23492945845715,446.4942980535207 371.2609752391472,445.8714081444844 371.56713831366994,442.0729313451256 368.9985582347891,439.7851290920189 368.619662220095,439.15296919290614 367.6613556118682,439.1632259126391 363.0398645514125,439.7351818963292 358.59443514985765,439.5428768227168 354.2566653035929,439.4685747923534 349.4345865155265,440.0743165909868 343.01675014209906,440.6275535879356 339.20398770563406,441.36818637500267 332.83612163560895,441.08389240417046 328.3232262376511,443.27583736757435 324.8149807674173,443.88467835074647 320.1398110610829,444.9144708654003 316.0181120135293,445.87500173064285 312.19100519650993,445.67410875274464 307.63835277243885,445.6030810489086 302.16432189333636,445.4669599203546 297.1883341074145,445.44393122881473 293.6318666696908,445.84059920106995 288.439643354466,445.15615464153956 286.85472349875573,445.4520763983369 286.72097325427944,445.6334054036354 285.9129382397095,449.58786515660324 282.68966126369224,450.4802610632173 281.4428757007874,453.5145857884747 278.89038493288353,452.90172666335684 277.9472432236317,450.67281467686314 276.1318818999906,448.10101075669917 273.2525051564643,447.17540693208934 270.89439940703977,446.06786232480016 268.4060189993221,444.56663163526184 265.7437632172154,443.41145399815554 265.0925114839897,440.045823136922 267.24843956653126,437.9830671140859 264.5569353497089,436.5208152716035 259.6780777904804,435.709440289299 255.03024344330453,435.52394705974575 249.65865997059163,435.047566764891 244.6529303320958,435.45752538809484 239.98286816977816,435.85616751139094 234.8387866868406,435.550387365291 229.52534221888354,435.1510477286629 225.95546573119617,433.334682695213 220.35254459971895,433.60164748305937 216.11212013146326,432.89926769428195 211.99153566507977,432.410669095085 207.21953992225107,431.86211291464156 206.91939773915163,433.9180948277099 206.82582913258966,437.84601281215646 203.36750296120482,439.9625853809631 200.17874733048743,439.58824801852086 196.05713619894314,439.0208869564036 192.34356887424795,439.5803172867824 188.55088446679065,440.4592671976906 188.41419487682603,435.9565718127401 188.71125914924463,431.4600936575285 189.14776623785937,430.5659045234266 186.30410767349403,430.04326788554084 181.17593731185406,430.4445217718647 179.57643622882347,432.6144505785088 175.66900073408573,432.9548978717018 171.08506001398442,433.68036416441345 166.2143080120333,434.2143575907263 165.99813112925327,434.2762631169376 165.48673999749332,436.2031519350958 162.1925999514314,437.3865765610255 160.96494402762906,440.49994467484976 157.16878823782588,441.8670770439511 154.98810969910502,443.6351454893376 151.1350649015655,443.90317498173437 147.0629214264705,444.8594743411503 143.81194091137738,444.72844323456906 139.06961404313003,444.8034231003109 135.82447610559322,444.40886689214125 134.69382443080576,444.4156518662366 134.6607533960337,444.8911089101216 134.10974241550525,449.4844665337983 134.69193227025193,454.6268307652349 134.10974241550525,449.4844665337983 134.6607533960337,444.8911089101216 134.69382443080576,444.4156518662366 131.67714501787407,444.4337547816853 128.8593768933271,444.2590074470742 125.94208591553699,444.03708454076474 121.98345052025869,444.6897201859183 118.04616491471356,444.0224628887234 114.49011152447163,444.02733129572727 110.00126165745553,444.5064281821706 108.8328080836441,442.78230197030194 108.40162802567045,444.1478921808639 108.54465865635909,448.3525745906161 108.06022629076742,452.974597837205 108.54465865635909,448.3525745906161 108.40162802567045,444.1478921808639 108.8328080836441,442.78230197030194 108.32918752988095,442.03917839479993 105.15944452177426,441.10609377515317 108.32918752988095,442.03917839479993 108.8328080836441,442.78230197030194 109.44848216036718,440.83240081758856 109.08308975587259,435.48845825346535 111.93984602317789,432.6720497029006 111.23197526758695,427.82666320457764 111.18886361483595,426.4340399407842 111.17145249239044,426.43555415139554 108.57691735444035,428.4523307423516 105.11406442658134,428.59927426708737 101.32661320901165,428.8320337641018 97.95684291951447,429.6411895113111 94.51065339594338,429.4759284758484 91.42565427062473,430.9685450261325 87.19568483198522,430.2425616841637 83.56037607937157,430.37410151363326 81.14215248891189,430.4474416020766 79.00917308326642,471.560111155436 618.9694802110236,478.42336935528294 618.160485976675,286.6228514159914 88.28040531293078,292.859320138985 81.14215248891189,430.4474416020766 83.56037607937157,430.37410151363326 87.19568483198522,430.2425616841637 91.42565427062473,430.9685450261325 94.51065339594338,429.4759284758484 97.95684291951447,429.6411895113111 101.32661320901165,428.8320337641018 105.11406442658134,428.59927426708737 108.57691735444035,428.4523307423516 111.17145249239044,426.43555415139554 111.18886361483595,426.4340399407842 111.07944364404291,422.8994782358528 112.36217392938946,419.03916833235775 112.18305891319784,413.42887949454814 113.34038729412457,407.97229130581627 113.07279390517233,403.0249382313773 115.51076267943505,398.8788775354843 115.14157622078868,393.52787916781705 115.43399181187763,389.0544231015471 116.07059428979233,384.3241480220473 118.27559785481058,379.70887989710513 118.85781353327843,375.53166561946995 118.48942822847606,370.7041171005365 118.50454043501018,365.4648827085233 118.38773727514969,362.5650511700125 115.912632739851,362.96493845948424 112.24756013056599,362.1647453495561 115.912632739851,362.96493845948424 118.38773727514969,362.5650511700125 118.33547023332432,361.26743545061856 118.13108419552219,355.26840282134174 118.64545998750125,350.8749547765626 118.45115492302227,346.4321713895848 118.29532976847653,341.68561426204843 118.80697479878334,336.97828429902455 118.32955316108733,331.3889173676887 118.33241216155832,331.27213636217294 117.07353758841896,331.3076657113172 113.68366281111233,331.7791833284129 109.32649474997609,331.4449884992629 104,331.015625 109.32649474997609,331.4449884992629 113.68366281111233,331.7791833284129 117.07353758841896,331.3076657113172 118.33241216155832,331.27213636217294 118.43732398490984,326.98682464369244 118.60604126405549,322.5173661154777 118.66735240633587,318.64127878308284 118,312.015625 118.66735240633587,318.64127878308284 118.60604126405549,322.5173661154777 118.43732398490984,326.98682464369244 118.33241216155832,331.27213636217294 121.22305464857504,331.1905534560092 126.75822684818917,331.3675180249061 132.18026216697248,331.5979535280238 134.94123691817,329.05158118381513 139.44081027429385,329.18951919355584 144.15512077064255,329.75263913113025 148.13394945042847,330.46753472945693 152.0792234147908,331.8891935674071 155.03745278963035,334.26752052768785 158.59863276630267,336.72447220881213 163.4377667397427,338.3052316204718 167.6043263167911,340.916355389809 170.04660512175857,345.72908495285367 172.3223117481912,349.7491545838452 176.95980748855314,352.15659226249346 177.30045129540977,358.8866893860854 179.465883712346,362.02656074783073 179.82408580513493,366.0978631101726 179.61061819085154,370.72223908508835 178.7236131875767,374.8392417074833 176.86486789575875,377.31571963414416 174.13094005966155,379.0808040244432 172.5788732318663,381.96517186865844 168.60137673204534,383.90916451411283 164.65082065603053,385.8215526358464 160.35415970416219,387.9367061994186 156.42173286939263,388.26501008845577 154.46245412495202,390.177847392579 150.7785590383143,391.6922267719693 147.54133029291654,391.8684315701141 143.69689349698095,393.0035711364015 140.07901433383992,392.1756695291566 136.25186134016968,392.0572987895393 133.9215732684214,394.78326348829546 138.27525681735455,394.1095338394523 144.4778023251765,394.4531225026368 149.34154860682239,394.7706141124725 154.227057417032,395.3170544912498 157.72278236026122,398.3119002744187 162.61918652749696,400.56616905529216 166.876985780111,403.290136667207 167.28969806858154,408.6929549394191 169.02818561752696,411.9476395061883 171.82978361582062,414.40132254505227 171.6342609678128,418.73833614846507 171.08614575765392,423.2999167164745 170.72075847291492,427.84003460990607 169.65760200321878,431.9729626327907 166.26431811232175,433.2732877242109 165.99813112925327,434.2762631169376 166.2143080120333,434.2143575907263 171.08506001398442,433.68036416441345 175.66900073408573,432.9548978717018 179.57643622882347,432.6144505785088 181.17593731185406,430.4445217718647 186.30410767349403,430.04326788554084 189.14776623785937,430.5659045234266 190.1208785354063,428.5724742552291 191.09883626860855,425.1345603112487 192.33992468358824,422.99840495472284 192.94076010089844,419.8684211037114 194.62516938026587,416.23730809562386 194.04068877614102,412.82152796740564 194.96560422290298,408.2634619522793 195.45336703477133,404.5414517875396 195.6936973793097,399.78463143721626 195.08573901880374,395.23690426231445 195.0897839743407,390.5275634653542 195.2522070577942,386.39554469173555 195.0531262207976,381.7119218203057 195.0537862657351,381.6733514152986 190,381.015625 195.0537862657351,381.6733514152986 195.14054375955502,376.6035880039269 198.15704199360707,375.4688279848055 195.14054375955502,376.6035880039269 195.0537862657351,381.6733514152986 195.68066059615288,381.754936148904 199.63337706734572,381.4793817604726 204.49789469662338,381.2316486640934 209.47574577264294,381.26995778327125 209.82517384691775,385.678765911204 209.98970733511493,389.55596729820417 208.44515062970333,393.2477385792001 206.14584509944294,395.48558443912896 205.50733875531384,399.0954859180092 208.620763899609,397.3207126516761 211.71775380724466,395.50473212174376 213.58302797874447,391.30115981915986 216.6196342126203,388.82792881405084 219.8433067007296,387.29826405406146 221.69835451071796,384.59018908114444 225.94968266055432,383.51068828877936 231.71380339048446,383.64981751440047 236.37010345143207,383.9755057127955 240.78592624708256,383.1612427461934 242.95956723698214,386.3310118315975 245.27405884370341,389.5805513373208 248.55123899477573,391.57298750523574 251.008125497192,394.267849405852 252.93091056787318,398.8399277799114 250.79170028442076,401.13528278660476 248.71449391417994,403.70940756427325 245.2335499824647,405.05075925605274 243.55397418123516,407.2580925386877 241.3665842775917,409.1026623278892 240.50171980487792,406.6887854039844 239.7389807054792,403.0337438526089 236.1481764513051,402.65220052179325 233.9669105453888,400.2076823981849 231.59745661845162,399.56914518837635 228.2728461982397,399.9054354931341 225.58804011703634,399.51051483459327 222.34028251902507,399.14885826040944 219.49977082763263,400.6013699528181 216.76082041369511,402.41259823360997 215.24565930534752,406.6564185238819 212.5255966014635,408.94174522447435 211.0534292665922,412.57334511741726 210.6820885191154,416.03038026333223 209.53137311691484,419.31351556247483 207.81207894770776,421.3917683200201 207.61723794799323,425.24460184963516 207.53659077825054,429.6903061438425 207.21953992225107,431.86211291464156 211.99153566507977,432.410669095085 216.11212013146326,432.89926769428195 220.35254459971895,433.60164748305937 225.95546573119617,433.334682695213 229.52534221888354,435.1510477286629 234.8387866868406,435.550387365291 239.98286816977816,435.85616751139094 244.6529303320958,435.45752538809484 249.65865997059163,435.047566764891 255.03024344330453,435.52394705974575 259.6780777904804,435.709440289299 264.5569353497089,436.5208152716035 267.24843956653126,437.9830671140859 268.0944738277949,437.1735956469811 270.54395810896,435.85929746496896 272.1236692735987,432.8224015781292 275.57818303414234,431.4888504358304 277.39675003100416,428.8133302762216 279.86042099368916,426.07648432240404 281.4188137405287,423.62318513041316 283.3994501580734,421.8516831634585 284.1392044715019,418.9408303058165 287.865474705146,417.5493780861375 288.15083008855083,413.7272240176953 291.04763408961827,410.18094255919976 292.0267991905472,407.5411381015164 294.42870963420125,405.458265362675 296.01307165791644,403.8651518477827 293.4462771072751,399.550666238119 291.0179977517053,397.09283393367275 289.15812732073977,395.4297723137026 287.9573982158884,393.2621564185042 285.9708481803908,392.5510140904198 284.53482635062636,390.93841439338917 281.4511791544765,389.58424448121553 280.5309315356295,386.9284104064517 277.68313772106507,385.62078357482136 275.5770163133543,384.8724950409236 274.39122256237033,382.9719521488071 273.3281135498229,381.915339918444 273,382.015625 273.3281135498229,381.915339918444 272.9444496157912,381.5340205991056 271.638201587705,378.59082682087006 272.9444496157912,381.5340205991056 273.3281135498229,381.915339918444 278.0695544683364,380.4661593239122 281.36995220168956,379.77429114728113 284.9966844766659,376.73456532155507 288.51753137036724,374.2567446899903 290.3472341124857,371.15637110491974 294.16908530917493,373.4249321776518 296.6785265734568,377.7305291179818 298.5991371350233,382.37128731282354 301.34014231863574,386.4929889696223 301.7335197465204,391.76884073057545 305.9151724129502,391.4776504967957 307.8190421553285,388.57870074154596 311.22438793113236,387.10408895335775 314.376480856081,384.9095792973905 316.165778113788,381.6482312514858 319.4800928824232,378.7937602004287 321.7515142600206,376.11318843230526 323.2763414213242,373.8654289033424 327.2773347765307,373.42287487910534 330.6168662913763,375.4500192133847 334.00436460098024,377.9890124297171 337.4096460983738,379.41009699960233 340.4336506675078,382.09452436602083 340.02343587415936,387.1183601431099 337.17991076399863,390.5336365062902 333.9941057481128,393.1171690675885 330.55410378853696,396.35578112312555 329.57383641888117,399.80072895554565 326.0851940648105,401.29302095638 323.55563606013175,404.76718716407663 320.88660249626184,407.14769768619595 317.7025007681242,410.276279680011 314.91999419349696,413.4251429139934 310.3033050520631,416.65743634142007 307.7856308742527,418.82119636633377 305.6461880657612,421.5691802573963 302.87274741920066,424.6724402859995 299.80098772103037,426.01640604431657 298.40321276489385,429.496659422182 295.08059203908687,432.62269032370295 293.73599539077156,435.25747130403204 290.9074084788219,438.64038490379534 289.77270507322305,441.49608589940914 286.85472349875573,445.4520763983369 288.439643354466,445.15615464153956 293.6318666696908,445.84059920106995 297.1883341074145,445.44393122881473 302.16432189333636,445.4669599203546 307.63835277243885,445.6030810489086 312.19100519650993,445.67410875274464 316.0181120135293,445.87500173064285 320.1398110610829,444.9144708654003 324.8149807674173,443.88467835074647 328.3232262376511,443.27583736757435 332.83612163560895,441.08389240417046 339.20398770563406,441.36818637500267 343.01675014209906,440.6275535879356 349.4345865155265,440.0743165909868 354.2566653035929,439.4685747923534 358.59443514985765,439.5428768227168 363.0398645514125,439.7351818963292 367.6613556118682,439.1632259126391 368.619662220095,439.15296919290614 367.81921482685306,437.8174820836911 366.4611882511963,435.596278318901 364.3785725503249,434.6684939720777 364.19978885660123,431.6999095823486 363.70710476901894,428.99097033856594 362.2641812702053,425.0477356634292 362.25990802115257,421.61485144124043 362.57926681711615,416.8809443518379 362.71010927238984,413.91344500112945 362.6649523356086,410.6941526056123 362.43347769220037,407.77383780146425 364.8377137746601,404.4196185032523 364.8014174957407,401.6766647396086 365.43163747711463,397.46217125038834 366.50488716246537,394.11757609702823 369.893653951,391.8471358933701 371.9344632618823,388.100243141403 374.7315205988628,384.07249583589436 377.0586902233389,381.05191625447327 379.713972121026,377.39711662779354 383.4482498518437,376.96370351604446 386.42014945321637,375.7780163086874 388.5763913695096,373.8100552570573 392.7540422167465,373.47896963504786 397.47628226001655,373.29862936291755 401.1268352934936,374.28727832948283 405.2720445812016,374.1717494016057 409.65957317157626,375.6469850677933 414.5592036728972,376.4750251141953 416.6245441128006,378.30025058519874 419,375.015625 416.6245441128006,378.30025058519874 418.11170592556664,379.614516053361 416.6245441128006,378.30025058519874 416.5557773889004,378.39533672927325 415.31124597637336,382.95064556453394 413.98504719578176,386.77625229757206 412.7527796082505,389.95812846070885 410.72244210074604,392.7607592446031 407.9547621086326,392.69283860780155 404.9730599257329,392.4634497062811 400.06346075625066,392.19693500664283 395.89375528417816,395.9510851164174 392.7505123212066,399.6186682848266 390.42226833780416,401.62071469985136 387.16213381188885,405.45712541090467 387.7217485525944,410.80757290254434 387.334814460241,416.45513840972495 388.1609596092328,420.6207981548167 390.9691118496974,423.93402807708435 395.2031099491399,424.91208012309437 399.3807472059869,424.1227724692611 404.18974405817545,424.9502233417474 408.2100001015681,426.51549081354574 408.22905279025366,431.84634397494386 407.2811652047792,436.38319097701947 405.8622442175366,439.21526582449235 405.9395504583465,439.20761512058544 411.4210529457444,440.0079852537116 416.537298205464,439.89746469665465 420.5650812051306,439.2919294255706 426.674462560752,439.14872947015016 430.7709881893838,440.6005059436049 435.75082777007935,440.1146837568653 439.3457236307181,442.5794290676902 z"
     id="path23" />
  <path
     style="fill:#bae3ff;fill-rule:evenodd;stroke:#000000;stroke-width:1px;stroke-opacity:1"
     d="M 488.4332405579917,398.8600302172148 488.4221899811308,399.56377760541136 491.29485003579407,399.56214437333585 495.7345613821097,399.503431103359 501.4813093262171,399.30725619843173 502.21896793466544,394.13995190654333 500.6313970696179,392.88974390974465 498.7659268048916,391.16238275128643 496.6560089641644,389.02698248853557 491.7368891979048,389.6991022719057 487.9971210981296,389.7789728280861 484.3062624302907,389.458773805006 480.59197014893135,389.63759158264935 477.157559886412,389.9358035966575 474.81250964334976,389.47664675394793 474.6552816397407,391.5404410958269 474.3361528613005,395.12173221211293 474.2646947518845,399.6252426467336 478.754412449418,399.951846678953 482.8694668059817,400.01415622128405 486.1029288798449,399.5650962061333 488.4221899811308,399.56377760541136 488.4332405579917,398.8600302172148 489,394.015625 z"
     id="path25" />
  <path
     style="fill:#ffbae3;fill-rule:evenodd;stroke:#000000;stroke-width:1px;stroke-opacity:1"
     d="M 486.4016261244109,406.8342988385369 486.669699438785,409.6075455040978 490.6433757245351,409.0772160755552 495.97737736240674,409.5801270185895 501.6752352212691,409.0203294355525 506.6790258460331,409.3735000126848 511.8988218350255,409.981523192007 512.9316850752647,406.19689585536344 512.3375518333419,403.4091974753339 512.2617496296152,399.36255079760434 512.2536125360747,395.8231639380446 512.8390614074688,392.34009269317835 511.6939505515227,390.4676674352418 509.59145391818987,388.26293928894546 507.40092775286377,386.34997769633605 506.66985593446765,383.1408269731007 503.9500113146892,382.85866022152834 500.06369631553093,381.11615909182143 497.85227330812944,380.90826220283947 495.16214521072664,378.84444910954414 491.18624634777643,378.4110930082584 486.2928433477757,378.50594786923773 481.64451904000424,378.5493936987433 477.348718711118,378.6522509251963 472.0958814565624,378.07632979437835 468.6386820903081,378.31939503387514 464.48749566968183,380.15182925437364 461.7729591260577,381.60858596111524 457.3921533331007,382.1390858194477 455.22881728466746,384.77155213018506 451.9803945441003,385.59759147371346 449.4088422974574,388.2523460841163 446.62162063015,389.38290819764694 445.18392172980674,394.59622691181124 444.2422653123925,398.7857060868722 442.44101965928434,402.29610700552746 442.6181535478984,407.2643569643408 441.90417233152283,410.4451827113594 439.4483278897694,414.2799578582739 439.02851549478623,418.5185455381957 438.219569354188,422.9391358279822 438.5957164980965,428.35389766737285 438.90001056258603,433.7167205719273 441.9407743667216,436.9324569926892 443.67891290357267,440.15777916952027 447.2336033012055,442.79683738401184 449.3396439477007,442.7850724753188 454.272511332152,443.3460100580608 458.2435166750907,443.89022330869665 454.272511332152,443.3460100580608 449.3396439477007,442.7850724753188 447.2336033012055,442.79683738401184 448.27913904766996,443.573059611998 452.4113345586084,444.71280511482695 455.5229134801201,447.10768050129536 459.4938126558029,448.90606350137887 463.04636136991695,451.3014275006579 467.09098790445825,452.67528961278884 472.90776316483147,453.7918831763446 477.46485207656855,455.10795098932607 483.0211814971965,455.1228888850091 487.63809352364746,455.2984862509784 492.1343000553012,455.9159989436051 496.76751029684294,455.2635607276347 502.54916106932205,455.5756463583684 506.7716526109333,455.1657647736782 510.66453108508836,453.98178594822207 510.0915849399586,449.93709309820787 510.2909828990418,446.91896373631323 510.6104314347094,442.9591216794297 507.8544517291319,442.6266459644471 503.36096628402265,442.5951858656757 498.04392635569496,443.7926108027041 494.19410258330936,443.15208306054916 490.3619260605169,444.90383716226523 487.4579384399933,444.97902853621207 484.67637262063477,444.17052548367144 480.57618357559284,444.1166881001363 476.016307545081,444.9157218922448 471.6935193735099,444.2941935605026 469.01079685085415,442.9522324509771 466.84381202658415,441.1266875766972 463.09610084591196,440.055912024706 462.9437744618855,437.7922260890157 461.7440415060424,434.59821679809505 459.9828691645348,433.06308117967524 459.81366828026194,429.9624400363369 460.30637463384096,425.45226157839556 462.20660421867484,421.8608516826502 464.7996189229874,419.1275869106384 466.4931508668751,416.57330653892825 468.61612386281416,414.752164639889 469.35415199647736,411.7750679429005 470.4899514747728,410.7656333365304 468.2637760906596,411.01257003553457 465,412.015625 468.2637760906596,411.01257003553457 470.4899514747728,410.7656333365304 471.54480592398346,409.8281381130649 471.40463709781494,406.6278067864339 471.54480592398346,409.8281381130649 470.4899514747728,410.7656333365304 473.19584662226316,410.46548411183727 476.327289469744,409.66067502258835 480.6666665572998,409.15041507397757 485.80630116499384,409.7227752007861 486.669699438785,409.6075455040978 486.4016261244109,406.8342988385369 488.35820636939377,403.63852412897336 488.4221899811308,399.56377760541136 486.1029288798449,399.5650962061333 482.8694668059817,400.01415622128405 478.754412449418,399.951846678953 474.2646947518845,399.6252426467336 474.3361528613005,395.12173221211293 474.6552816397407,391.5404410958269 474.81250964334976,389.47664675394793 473.1192178467501,389.14510310476055 474.81250964334976,389.47664675394793 475,387.015625 474.81250964334976,389.47664675394793 477.157559886412,389.9358035966575 480.59197014893135,389.63759158264935 484.3062624302907,389.458773805006 487.9971210981296,389.7789728280861 491.7368891979048,389.6991022719057 496.6560089641644,389.02698248853557 498.7659268048916,391.16238275128643 500.6313970696179,392.88974390974465 502.21896793466544,394.13995190654333 501.4813093262171,399.30725619843173 495.7345613821097,399.503431103359 491.29485003579407,399.56214437333585 488.4221899811308,399.56377760541136 488.35820636939377,403.63852412897336 z"
     id="path27" />
  <path
     style="fill:none;fill-rule:evenodd;stroke:#ffffff;stroke-width:1px;stroke-opacity:1"
     d="M 79.00917308326642,471.560111155436 81.14215248891189,430.4474416020766 79.78664350289138,430.48855159261376 75.33801500065546,430.47557897677154 71.27352998932002,432.13680376854387 75.33801500065546,430.47557897677154 79.78664350289138,430.48855159261376 81.14215248891189,430.4474416020766 88.28040531293078,292.859320138985 75,293.015625 88.28040531293078,292.859320138985 89.24130508375657,274.3382061294925 88.28040531293078,292.859320138985 618.160485976675,286.6228514159914 618.9694802110236,478.42336935528294 z"
     id="path29"
     inkscape:export-xdpi="90"
     inkscape:export-ydpi="90" />
</svg>
