<svg xmlns="http://www.w3.org/2000/svg"
width="1199"
height="799"

viewBox="0 0 1199 799"
><path style="fill:#000000;fill-rule:evenodd;stroke:#ffffff;stroke-width:1px;stroke-opacity:1"
d="M 1,1 1200,1 1200,800 1,800 z"
id="face 1"
/>
<path style="fill:#ffbae3;fill-rule:evenodd;stroke:#000000;stroke-width:1px;stroke-opacity:1"
d="M 775.4114931521942,465.6402952646289 805.5500132719174,498.24168569396215 828.9058022262078,563.3017234569506 945.815436798845,535.6842352189306 870.2245540855296,437.61459558874367 z"
id="face 1"
/>
<path style="fill:#bae3ff;fill-rule:evenodd;stroke:#000000;stroke-width:1px;stroke-opacity:1"
d="M 380.8101957709471,194.39607806739713 331.3384115448452,255.58331027893553 432.18244051095536,305.70906872223503 486.106085989886,237.06758911998762 415.12513020640887,211.75662282509717 z"
id="face 1"
/>
<path style="fill:#bae3ff;fill-rule:evenodd;stroke:#000000;stroke-width:1px;stroke-opacity:1"
d="M 300.77611504918656,389.6459675078148 341.03634594717244,331.3983153087591 289.6269677589622,307.17247037756766 289.6238910258415,307.1762757140207 231.41638786759154,362.7018722411635 z"
id="face 1"
/>
<path style="fill:#bae3ff;fill-rule:evenodd;stroke:#000000;stroke-width:1px;stroke-opacity:1"
d="M 363.7050438373153,546.3181921884537 403.0571830684939,620.2260545884623 508.78326217923063,524.9448778330599 487.4647176599043,462.16867914956396 436.547854657945,442.3890626033231 z"
id="face 1"
/>
<path style="fill:#ffbae3;fill-rule:evenodd;stroke:#000000;stroke-width:1px;stroke-opacity:1"
d="M 251.05780787478466,461.5773648104879 300.77611504918656,389.6459675078148 231.41638786759154,362.7018722411635 157.2971036632689,433.4061156171576 z"
id="face 1"
/>
<path style="fill:#bae3ff;fill-rule:evenodd;stroke:#000000;stroke-width:1px;stroke-opacity:1"
d="M 957.1342814068336,305.391276279666 1017.6166182764047,301.2889138446445 999.0554293565506,219.253212871418 898.9424692109285,228.20871245472065 z"
id="face 1"
/>
<path style="fill:#e3ffba;fill-rule:evenodd;stroke:#000000;stroke-width:1px;stroke-opacity:1"
d="M 649.2288926561192,250.5465778772267 615.4703000265998,189.15471110709814 660.1920903296356,165.1239552915579 601.9668208635433,89.58400934905148 520.8732844673196,192.81108672812866 611.9547759576242,253.88089479359593 z"
id="face 1"
/>
<path style="fill:#bae3ff;fill-rule:evenodd;stroke:#000000;stroke-width:1px;stroke-opacity:1"
d="M 693.7995270690029,595.2177924676577 646.6234257510949,503.70863377506566 597.382535718023,518.2637001578552 645.5289822866857,606.6207124035693 z"
id="face 1"
/>
<path style="fill:#bae3ff;fill-rule:evenodd;stroke:#000000;stroke-width:1px;stroke-opacity:1"
d="M 828.9058022262078,563.3017234569506 872.5164541032757,684.7838392417555 1032.458337047,648.0924741341512 945.815436798845,535.6842352189306 z"
id="face 1"
/>
<path style="fill:#ffd6ba;fill-rule:evenodd;stroke:#000000;stroke-width:1px;stroke-opacity:1"
d="M 999.0554293565506,219.253212871418 959.5010611446775,44.433036382441074 475.9371212666495,76.74207850123088 430.8791038729617,132.47031665530375 520.8732844673196,192.81108672812866 601.9668208635433,89.58400934905148 660.1920903296356,165.1239552915579 796.2564062078341,92.0113109201725 898.9424692109285,228.20871245472065 z"
id="face 1"
/>
<path style="fill:#bae3ff;fill-rule:evenodd;stroke:#000000;stroke-width:1px;stroke-opacity:1"
d="M 396.27224713340473,701.0688730158005 485.62678005323204,689.4871170105295 568.9472979188481,702.1084481587568 544.6155767751252,630.4594216764351 360.1918352727643,674.0257242345753 z"
id="face 1"
/>
<path style="fill:#e3ffba;fill-rule:evenodd;stroke:#000000;stroke-width:1px;stroke-opacity:1"
d="M 568.9472979188481,702.1084481587568 634.3549647021323,712.0163537173397 697.7859309110671,702.5212030647716 645.5289822866857,606.6207124035693 544.6155767751252,630.4594216764351 z"
id="face 1"
/>
<path style="fill:#bae3ff;fill-rule:evenodd;stroke:#000000;stroke-width:1px;stroke-opacity:1"
d="M 436.547854657945,442.3890626033231 506.4660544321048,342.6326478957543 432.18244051095536,305.70906872223503 350.9355557867747,409.1313490782624 z"
id="face 1"
/>
<path style="fill:#ffbae3;fill-rule:evenodd;stroke:#000000;stroke-width:1px;stroke-opacity:1"
d="M 695.2863858108273,334.3046750985976 595.8959383512971,276.2173472764922 486.106085989886,237.06758911998762 432.18244051095536,305.70906872223503 506.4660544321048,342.6326478957543 538.0644003492121,297.54942622297426 714.707019591887,369.62217114361135 z"
id="face 1"
/>
<path style="fill:#ffbae3;fill-rule:evenodd;stroke:#000000;stroke-width:1px;stroke-opacity:1"
d="M 943.0607783808199,416.0850074968617 851.7662620276741,312.5381199190881 957.1342814068336,305.391276279666 898.9424692109285,228.20871245472065 721.0806283641614,244.1191564099464 870.2245540855296,437.61459558874367 z"
id="face 1"
/>
<path style="fill:#bae3ff;fill-rule:evenodd;stroke:#000000;stroke-width:1px;stroke-opacity:1"
d="M 796.2564062078341,92.0113109201725 660.1920903296356,165.1239552915579 721.0806283641614,244.1191564099464 898.9424692109285,228.20871245472065 z"
id="face 1"
/>
<path style="fill:#ffbae3;fill-rule:evenodd;stroke:#000000;stroke-width:1px;stroke-opacity:1"
d="M 615.4703000265998,189.15471110709814 649.2288926561192,250.5465778772267 721.0806283641614,244.1191564099464 660.1920903296356,165.1239552915579 z"
id="face 1"
/>
<path style="fill:#bae3ff;fill-rule:evenodd;stroke:#000000;stroke-width:1px;stroke-opacity:1"
d="M 653.4031832294565,425.2962460086455 756.952153606828,370.3443525618332 695.2863858108273,334.3046750985976 714.707019591887,369.62217114361135 538.0644003492121,297.54942622297426 506.4660544321048,342.6326478957543 646.561187894518,412.2686480736 z"
id="face 1"
/>
<path style="fill:#ffbae3;fill-rule:evenodd;stroke:#000000;stroke-width:1px;stroke-opacity:1"
d="M 508.78326217923063,524.9448778330599 570.5905165011168,469.24369253097774 653.4031832294565,425.2962460086455 646.561187894518,412.2686480736 506.4660544321048,342.6326478957543 436.547854657945,442.3890626033231 487.4647176599043,462.16867914956396 z"
id="face 1"
/>
<path style="fill:#ffbae3;fill-rule:evenodd;stroke:#000000;stroke-width:1px;stroke-opacity:1"
d="M 430.8791038729617,132.47031665530375 380.8101957709471,194.39607806739713 415.12513020640887,211.75662282509717 486.106085989886,237.06758911998762 520.8732844673196,192.81108672812866 z"
id="face 1"
/>
<path style="fill:#bae3ff;fill-rule:evenodd;stroke:#000000;stroke-width:1px;stroke-opacity:1"
d="M 595.8959383512971,276.2173472764922 695.2863858108273,334.3046750985976 649.2288926561192,250.5465778772267 611.9547759576242,253.88089479359593 520.8732844673196,192.81108672812866 486.106085989886,237.06758911998762 z"
id="face 1"
/>
<path style="fill:#e3ffba;fill-rule:evenodd;stroke:#000000;stroke-width:1px;stroke-opacity:1"
d="M 669.6407018375002,456.2135228457413 741.060579459989,428.4822813862021 775.4114931521942,465.6402952646289 870.2245540855296,437.61459558874367 721.0806283641614,244.1191564099464 649.2288926561192,250.5465778772267 695.2863858108273,334.3046750985976 756.952153606828,370.3443525618332 653.4031832294565,425.2962460086455 z"
id="face 1"
/>
<path style="fill:#ffd6ba;fill-rule:evenodd;stroke:#000000;stroke-width:1px;stroke-opacity:1"
d="M 646.6234257510949,503.70863377506566 630.0609160721197,471.5817457063051 669.6407018375002,456.2135228457413 653.4031832294565,425.2962460086455 570.5905165011168,469.24369253097774 508.78326217923063,524.9448778330599 544.6155767751252,630.4594216764351 645.5289822866857,606.6207124035693 597.382535718023,518.2637001578552 z"
id="face 1"
/>
<path style="fill:#ffbae3;fill-rule:evenodd;stroke:#000000;stroke-width:1px;stroke-opacity:1"
d="M 298.52973364708106,475.84073305057404 331.44520134515875,485.73048217986513 363.7050438373153,546.3181921884537 436.547854657945,442.3890626033231 350.9355557867747,409.1313490782624 z"
id="face 1"
/>
<path style="fill:#bac1ff;fill-rule:evenodd;stroke:#000000;stroke-width:1px;stroke-opacity:1"
d="M 201.0290844590942,599.9530545192338 272.60232182165464,717.0984448052463 396.27224713340473,701.0688730158005 360.1918352727643,674.0257242345753 544.6155767751252,630.4594216764351 508.78326217923063,524.9448778330599 403.0571830684939,620.2260545884623 363.7050438373153,546.3181921884537 336.4686172816065,585.1780065346417 363.7050438373153,546.3181921884537 331.44520134515875,485.73048217986513 298.52973364708106,475.84073305057404 z"
id="face 1"
/>
<path style="fill:#e3ffba;fill-rule:evenodd;stroke:#000000;stroke-width:1px;stroke-opacity:1"
d="M 195.73259067166387,262.9262511196706 161.06420834861854,246.5893319859947 92.78250037041116,234.4106198442746 70.87961777253835,307.1937640253768 129.6424140603897,483.1130222217761 201.0290844590942,599.9530545192338 298.52973364708106,475.84073305057404 251.05780787478466,461.5773648104879 222.95606508335965,502.2343730737995 286.12291777806246,630.7035385613034 222.95606508335965,502.2343730737995 251.05780787478466,461.5773648104879 157.2971036632689,433.4061156171576 231.41638786759154,362.7018722411635 145.04253791428218,329.14831982311176 z"
id="face 1"
/>
<path style="fill:#ffbae3;fill-rule:evenodd;stroke:#000000;stroke-width:1px;stroke-opacity:1"
d="M 289.6269677589622,307.17247037756766 195.73259067166387,262.9262511196706 145.04253791428218,329.14831982311176 231.41638786759154,362.7018722411635 289.6238910258415,307.1762757140207 z"
id="face 1"
/>
<path style="fill:#ffbae3;fill-rule:evenodd;stroke:#000000;stroke-width:1px;stroke-opacity:1"
d="M 331.3384115448452,255.58331027893553 380.8101957709471,194.39607806739713 285.2109489248803,146.03069340390692 237.17897889384494,208.7802122213568 z"
id="face 1"
/>
<path style="fill:#bae3ff;fill-rule:evenodd;stroke:#000000;stroke-width:1px;stroke-opacity:1"
d="M 380.8101957709471,194.39607806739713 430.8791038729617,132.47031665530375 341.47575786575544,72.52569901965794 285.2109489248803,146.03069340390692 z"
id="face 1"
/>
<path style="fill:#ffbae3;fill-rule:evenodd;stroke:#000000;stroke-width:1px;stroke-opacity:1"
d="M 1032.458337047,648.0924741341512 1107.4185280634924,630.8962795758465 1024.795634121979,517.0267936951275 945.815436798845,535.6842352189306 z"
id="face 1"
/>
<path style="fill:#bae3ff;fill-rule:evenodd;stroke:#000000;stroke-width:1px;stroke-opacity:1"
d="M 1024.795634121979,517.0267936951275 991.0319480989184,470.4942482289102 943.0607783808199,416.0850074968617 870.2245540855296,437.61459558874367 945.815436798845,535.6842352189306 z"
id="face 1"
/>
<path style="fill:#bae3ff;fill-rule:evenodd;stroke:#000000;stroke-width:1px;stroke-opacity:1"
d="M 851.7662620276741,312.5381199190881 943.0607783808199,416.0850074968617 1022.8173447791598,392.50984227114134 957.1342814068336,305.391276279666 z"
id="face 1"
/>
<path style="fill:#ffbae3;fill-rule:evenodd;stroke:#000000;stroke-width:1px;stroke-opacity:1"
d="M 991.0319480989184,470.4942482289102 1024.795634121979,517.0267936951275 1076.2047626975689,504.88244811614027 1066.2943054102975,213.23842991419463 999.0554293565506,219.253212871418 1017.6166182764047,301.2889138446445 957.1342814068336,305.391276279666 1022.8173447791598,392.50984227114134 943.0607783808199,416.0850074968617 z"
id="face 1"
/>
<path style="fill:#ffbae3;fill-rule:evenodd;stroke:#000000;stroke-width:1px;stroke-opacity:1"
d="M 697.7859309110671,702.5212030647716 745.4405202250219,695.3876603826087 693.7995270690029,595.2177924676577 645.5289822866857,606.6207124035693 z"
id="face 1"
/>
<path style="fill:#ffbae3;fill-rule:evenodd;stroke:#000000;stroke-width:1px;stroke-opacity:1"
d="M 872.5164541032757,684.7838392417555 828.9058022262078,563.3017234569506 737.2535286261285,584.952681458751 830.4200291570507,762.3476737841825 1122.7080522367248,765.1801006796768 1032.458337047,648.0924741341512 z"
id="face 1"
/>
<path style="fill:#bae3ff;fill-rule:evenodd;stroke:#000000;stroke-width:1px;stroke-opacity:1"
d="M 805.5500132719174,498.24168569396215 775.4114931521942,465.6402952646289 688.1397350955767,491.43686862070905 737.2535286261285,584.952681458751 828.9058022262078,563.3017234569506 z"
id="face 1"
/>
<path style="fill:#ffbae3;fill-rule:evenodd;stroke:#000000;stroke-width:1px;stroke-opacity:1"
d="M 741.060579459989,428.4822813862021 669.6407018375002,456.2135228457413 688.1397350955767,491.43686862070905 775.4114931521942,465.6402952646289 z"
id="face 1"
/>
<path style="fill:#bae3ff;fill-rule:evenodd;stroke:#000000;stroke-width:1px;stroke-opacity:1"
d="M 630.0609160721197,471.5817457063051 646.6234257510949,503.70863377506566 688.1397350955767,491.43686862070905 669.6407018375002,456.2135228457413 z"
id="face 1"
/>
<path style="fill:#ffbae3;fill-rule:evenodd;stroke:#000000;stroke-width:1px;stroke-opacity:1"
d="M 646.6234257510949,503.70863377506566 693.7995270690029,595.2177924676577 737.2535286261285,584.952681458751 688.1397350955767,491.43686862070905 z"
id="face 1"
/>
<path style="fill:#bae3ff;fill-rule:evenodd;stroke:#000000;stroke-width:1px;stroke-opacity:1"
d="M 92.78250037041116,234.4106198442746 43.639840532123344,225.64554460274744 70.87961777253835,307.1937640253768 z"
id="face 1"
/>
<path style="fill:#bae3ff;fill-rule:evenodd;stroke:#000000;stroke-width:1px;stroke-opacity:1"
d="M 634.3549647021323,712.0163537173397 568.9472979188481,702.1084481587568 580.962281456583,737.4886774731926 455.64716468440804,745.5718220233305 500.54654275515264,779.225001095718 731.1397124711515,763.7311301887268 697.7859309110671,702.5212030647716 z"
id="face 1"
/>
<path style="fill:#ffbae3;fill-rule:evenodd;stroke:#000000;stroke-width:1px;stroke-opacity:1"
d="M 485.62678005323204,689.4871170105295 396.27224713340473,701.0688730158005 455.64716468440804,745.5718220233305 580.962281456583,737.4886774731926 568.9472979188481,702.1084481587568 z"
id="face 1"
/>
<path style="fill:#e3ffba;fill-rule:evenodd;stroke:#000000;stroke-width:1px;stroke-opacity:1"
d="M 272.60232182165464,717.0984448052463 201.0290844590942,599.9530545192338 159.48971982673442,652.8301073367502 208.9795921133021,761.48250938716 455.64716468440804,745.5718220233305 396.27224713340473,701.0688730158005 z"
id="face 1"
/>
<path style="fill:#bae3ff;fill-rule:evenodd;stroke:#000000;stroke-width:1px;stroke-opacity:1"
d="M 129.6424140603897,483.1130222217761 70.87961777253835,307.1937640253768 43.49914196689177,398.1789167514887 159.48971982673442,652.8301073367502 201.0290844590942,599.9530545192338 z"
id="face 1"
/>
<path style="fill:#ffbae3;fill-rule:evenodd;stroke:#000000;stroke-width:1px;stroke-opacity:1"
d="M 161.06420834861854,246.5893319859947 195.73259067166387,262.9262511196706 237.17897889384494,208.7802122213568 118.28067155063512,149.68035381322244 92.78250037041116,234.4106198442746 z"
id="face 1"
/>
<path style="fill:#bae3ff;fill-rule:evenodd;stroke:#000000;stroke-width:1px;stroke-opacity:1"
d="M 195.73259067166387,262.9262511196706 289.6269677589622,307.17247037756766 331.3384115448452,255.58331027893553 237.17897889384494,208.7802122213568 z"
id="face 1"
/>
<path style="fill:#ffbae3;fill-rule:evenodd;stroke:#000000;stroke-width:1px;stroke-opacity:1"
d="M 341.03634594717244,331.3983153087591 300.77611504918656,389.6459675078148 350.9355557867747,409.1313490782624 432.18244051095536,305.70906872223503 331.3384115448452,255.58331027893553 289.6269677589622,307.17247037756766 z"
id="face 1"
/>
<path style="fill:#bae3ff;fill-rule:evenodd;stroke:#000000;stroke-width:1px;stroke-opacity:1"
d="M 300.77611504918656,389.6459675078148 251.05780787478466,461.5773648104879 298.52973364708106,475.84073305057404 350.9355557867747,409.1313490782624 z"
id="face 1"
/>
<path style="fill:none;fill-rule:evenodd;stroke:#ffffff;stroke-width:1px;stroke-opacity:1"
d="M 43.639840532123344,225.64554460274744 92.78250037041116,234.4106198442746 118.28067155063512,149.68035381322244 237.17897889384494,208.7802122213568 285.2109489248803,146.03069340390692 216,111.015625 285.2109489248803,146.03069340390692 341.47575786575544,72.52569901965794 430.8791038729617,132.47031665530375 475.9371212666495,76.74207850123088 959.5010611446775,44.433036382441074 999.0554293565506,219.253212871418 1066.2943054102975,213.23842991419463 1076.2047626975689,504.88244811614027 1024.795634121979,517.0267936951275 1107.4185280634924,630.8962795758465 1032.458337047,648.0924741341512 1122.7080522367248,765.1801006796768 830.4200291570507,762.3476737841825 737.2535286261285,584.952681458751 693.7995270690029,595.2177924676577 745.4405202250219,695.3876603826087 697.7859309110671,702.5212030647716 731.1397124711515,763.7311301887268 500.54654275515264,779.225001095718 455.64716468440804,745.5718220233305 208.9795921133021,761.48250938716 159.48971982673442,652.8301073367502 80,754.015625 159.48971982673442,652.8301073367502 43.49914196689177,398.1789167514887 70.87961777253835,307.1937640253768 z"
id="face 1"
/>
</svg>