<?xml version="1.0" encoding="UTF-8" standalone="no"?>
<svg
   xmlns:dc="http://purl.org/dc/elements/1.1/"
   xmlns:cc="http://creativecommons.org/ns#"
   xmlns:rdf="http://www.w3.org/1999/02/22-rdf-syntax-ns#"
   xmlns:svg="http://www.w3.org/2000/svg"
   xmlns="http://www.w3.org/2000/svg"
   xmlns:sodipodi="http://sodipodi.sourceforge.net/DTD/sodipodi-0.dtd"
   xmlns:inkscape="http://www.inkscape.org/namespaces/inkscape"
   width="500"
   height="1000"
   viewBox="0 0 500 1000"
   id="svg2"
   version="1.1"
   inkscape:version="0.91 r13725"
   sodipodi:docname="svg_saving1_expanded.svg">
  <metadata
     id="metadata51">
    <rdf:RDF>
      <cc:Work
         rdf:about="">
        <dc:format>image/svg+xml</dc:format>
        <dc:type
           rdf:resource="http://purl.org/dc/dcmitype/StillImage" />
        <dc:title></dc:title>
      </cc:Work>
    </rdf:RDF>
  </metadata>
  <defs
     id="defs49" />
  <sodipodi:namedview
     pagecolor="#ffffff"
     bordercolor="#666666"
     borderopacity="1"
     objecttolerance="10"
     gridtolerance="10"
     guidetolerance="10"
     inkscape:pageopacity="0"
     inkscape:pageshadow="2"
     inkscape:window-width="1920"
     inkscape:window-height="1017"
     id="namedview47"
     showgrid="false"
     inkscape:zoom="0.944"
     inkscape:cx="510.97575"
     inkscape:cy="472.95224"
     inkscape:window-x="-8"
     inkscape:window-y="-8"
     inkscape:window-maximized="1"
     inkscape:current-layer="svg2" />
  <path
     style="fill:#000000;fill-rule:evenodd;stroke:#ffffff;stroke-width:1px;stroke-opacity:1"
     d="m 0.5,0.50000061 499,0 0,498.99999939 -499,0 z"
     id="face 1"
     inkscape:connector-curvature="0" />
  <path
     style="fill:#bae3ff;fill-rule:evenodd;stroke:#000000;stroke-width:1px;stroke-opacity:1"
     d="m 136.18763,590.71659 -17.93971,-58.35226 -87.350564,-6.95621 0.10304,90.53651 56.089636,1.72732 2.38457,-27.42249 -17.3762,-0.17376 17.3762,0.17376 2.6238,-30.17376 -2.6238,30.17376 z"
     id="path5"
     inkscape:connector-curvature="0" />
  <path
     style="fill:#ffd6ba;fill-rule:evenodd;stroke:#000000;stroke-width:1px;stroke-opacity:1"
     d="m 324.56271,994.66385 37.75821,-41.11289 22.44585,-82.79713 -20.09148,0.9983 -1.6632,20.45888 -87.12822,73.98912 -0.44144,-50.93769 -34.94588,-0.41113 -6.84721,78.74297 z"
     id="path7"
     inkscape:connector-curvature="0" />
  <path
     style="fill:#e3ffba;fill-rule:evenodd;stroke:#000000;stroke-width:1px;stroke-opacity:1"
     d="m 213.98254,657.0149 -14.55677,-3.26689 -5.561,-18.08819 -46.71303,-0.46713 -2.38456,27.42248 28.88475,0.88953 0.6552,18.5004 31.72266,-5.02548 z"
     id="path9"
     inkscape:connector-curvature="0" />
  <path
     style="fill:#ffbae3;fill-rule:evenodd;stroke:#000000;stroke-width:1px;stroke-opacity:1"
     d="m 115.40859,849.33501 -12.27658,2.87811 -23.790973,17.32805 5.883262,18.96142 L 79.341037,869.54117 49.87354,891.0037 79.341037,869.54117 70.830006,842.1106 27.221601,865.18085 37.501666,970.67664 145.73761,952.0202 l 21.0038,-61.38662 -54.86787,-0.64551 z"
     id="path11"
     inkscape:connector-curvature="0" />
  <path
     style="fill:#bae3ff;fill-rule:evenodd;stroke:#000000;stroke-width:1px;stroke-opacity:1"
     d="m 377.00552,540.2335 -4.24348,36.12437 25.05791,-4.75587 4.66705,-31.11368 z"
     id="path13"
     inkscape:connector-curvature="0" />
  <path
     style="fill:#e3ffba;fill-rule:evenodd;stroke:#000000;stroke-width:1px;stroke-opacity:1"
     d="m 408.0763,800.45437 -33.97314,1.68804 -21.03215,2.01636 -6.02066,40.13776 -28.20691,-0.33185 0.44144,50.93769 87.12822,-73.98912 z"
     id="path15"
     inkscape:connector-curvature="0" />
  <path
     style="fill:#bae3ff;fill-rule:evenodd;stroke:#000000;stroke-width:1px;stroke-opacity:1"
     d="m 457.27972,599.43381 -42.28477,8.02544 -7.09912,47.32749 47.51236,0.23756 z"
     id="path17"
     inkscape:connector-curvature="0" />
  <path
     style="fill:#bae3ff;fill-rule:evenodd;stroke:#000000;stroke-width:1px;stroke-opacity:1"
     d="m 326.02066,811.86225 -19.28109,1.84848 -15.38179,-12.27224 0.43531,50.22966 L 320,852 Z"
     id="path19"
     inkscape:connector-curvature="0" />
  <path
     style="fill:#bae3ff;fill-rule:evenodd;stroke:#000000;stroke-width:1px;stroke-opacity:1"
     d="m 216.29446,820.12998 -28.58724,3.75722 -8.13789,-21.79062 -24.53617,5.75225 -3.53505,40.65306 54.86787,0.64551 z"
     id="path21"
     inkscape:connector-curvature="0" />
  <path
     style="fill:#ffbae3;fill-rule:evenodd;stroke:#000000;stroke-width:1px;stroke-opacity:1"
     d="m 410.16422,769.4099 33.97314,-1.68804 3.60453,-44.33896 1.11571,-33.14015 -47.51237,-0.23757 -12.21316,81.42108 z"
     id="path23"
     inkscape:connector-curvature="0" />
  <path
     style="fill:#bae3ff;fill-rule:evenodd;stroke:#000000;stroke-width:1px;stroke-opacity:1"
     d="m 428.85819,941.64138 -37.75821,41.1129 79.08662,0.93043 30,-201 -64.2538,-0.32127 -1.11571,33.14015 -3.60453,44.33896 20.09148,-0.9983 z"
     id="path25"
     inkscape:connector-curvature="0" />
  <path
     style="fill:#bae3ff;fill-rule:evenodd;stroke:#000000;stroke-width:1px;stroke-opacity:1"
     d="m 74.499991,805.11874 -13.99429,-45.1028 -34.942428,13.49299 5.328314,54.68007 z"
     id="path27"
     inkscape:connector-curvature="0" />
  <path
     style="fill:#ffbae3;fill-rule:evenodd;stroke:#000000;stroke-width:1px;stroke-opacity:1"
     d="m 180.13351,774.09035 -2.08111,-58.76339 -31.6622,5.01589 -6.5262,75.05137 z"
     id="path29"
     inkscape:connector-curvature="0" />
  <path
     style="fill:#bae3ff;fill-rule:evenodd;stroke:#000000;stroke-width:1px;stroke-opacity:1"
     d="m 174.40098,686.72537 -28.88475,-0.88953 -2.12224,24.40582 31.66219,-5.0159 z"
     id="path31"
     inkscape:connector-curvature="0" />
  <path
     style="fill:#ffbae3;fill-rule:evenodd;stroke:#000000;stroke-width:1px;stroke-opacity:1"
     d="m 221.66239,564.17182 14.55678,3.26689 8.39302,-21.06998 -28.51079,-0.2851 z"
     id="path33"
     inkscape:connector-curvature="0" />
  <path
     style="fill:#bae3ff;fill-rule:evenodd;stroke:#000000;stroke-width:1px;stroke-opacity:1"
     d="m 324.78378,562.29893 6.92769,-27.95093 -30.55674,-0.30557 -8.39302,21.06997 z"
     id="path35"
     inkscape:connector-curvature="0" />
  <path
     style="fill:#e3ffba;fill-rule:evenodd;stroke:#000000;stroke-width:1px;stroke-opacity:1"
     d="m 60.505701,733.79906 13.99429,45.1028 47.386719,-25.0691 6.5262,-75.05136 -107.860611,17.08716 5.010974,51.42349 z"
     id="path37"
     inkscape:connector-curvature="0" />
  <path
     style="fill:#bae3ff;fill-rule:evenodd;stroke:#000000;stroke-width:1px;stroke-opacity:1"
     d="m 116.79672,811.65775 12.27659,-2.87812 2.80813,-32.2935 -47.386714,25.0691 8.511031,27.43057 z"
     id="path39"
     inkscape:connector-curvature="0" />
  <path
     style="fill:#ffbae3;fill-rule:evenodd;stroke:#000000;stroke-width:1px;stroke-opacity:1"
     d="m 266.56638,826.29925 -23.93423,34.91861 -29.33391,3.85535 -9.92848,29.01741 51.97935,0.61153 34.94587,0.41112 -0.43531,-50.22966 z"
     id="path41"
     inkscape:connector-curvature="0" />
  <path
     style="fill:#ffd6ba;fill-rule:evenodd;stroke:#000000;stroke-width:1px;stroke-opacity:1"
     d="m 279.41106,755.63625 23.93423,-34.91862 -6.06448,-4.8385 6.06448,4.8385 9.98508,-14.56763 -9.98508,14.56763 23.2933,18.58437 -0.16176,-18.66472 0.16176,18.66472 15.38179,12.27224 19.28109,-1.84849 12.21316,-81.42107 -70.85008,-0.35425 -17.38374,-0.0869 17.38374,0.0869 2.61626,-30.08692 -2.61626,30.08692 70.85008,0.35425 7.09912,-47.32749 -25.05791,4.75587 4.24349,-36.12437 -51.36177,-0.51362 -6.92769,27.95094 -32.02207,-7.18653 -7.95275,19.96473 -31.72267,5.02547 2.08112,58.76339 -40.26951,21.30387 -2.80813,32.2935 24.53616,-5.75224 -5.07121,-13.57907 5.07121,13.57907 16.35874,-3.83514 -16.35874,3.83514 8.1379,21.79062 28.58724,-3.75722 15.47705,-45.23393 -15.47705,45.23393 z"
     id="path43"
     inkscape:connector-curvature="0" />
  <path
     style="fill:none;fill-rule:evenodd;stroke:#ffffff;stroke-width:1px;stroke-opacity:1"
     d="m 203.64006,77.688673 17.9397,58.352267 28.51079,0.28511 39.39999,-98.910387 -39.39999,98.910387 30.55675,0.30556 8.49865,-34.28922 -8.49865,34.28922 51.36176,0.51362 7.2063,-61.346627 -7.2063,61.346627 25.48148,0.25482 -4.66705,31.11368 42.28477,-8.02544 -1.87153,55.59049 64.25381,0.32127 -30,201 -79.08663,-0.93043 -37.24881,40.55824 37.24881,-40.55824 -90.91337,-1.06957 6.84721,-78.74298 -51.97934,-0.61152 -21.0038,61.38663 -108.235946,18.65644 -10.280061,-105.49579 -22.348065,11.82284 22.348065,-11.82284 -5.32831,-54.68007 -22.019755,8.50291 22.019755,-8.50291 -5.01098,-51.42348 107.860617,-17.08717 2.12224,-24.40581 -56.08964,-1.72732 -0.10304,-90.536517 z"
     id="path45"
     inkscape:connector-curvature="0" />
</svg>
