<svg xmlns="http://www.w3.org/2000/svg"
width="500"
height="500"

viewBox="0 0 500 500"
><path style="fill:#000000;fill-rule:evenodd;stroke:#ffffff;stroke-width:1px;stroke-opacity:1"
d="M 1,1 500,1 500,500 1,500 z"
id="face 1"
/>
<path style="fill:#bae3ff;fill-rule:evenodd;stroke:#000000;stroke-width:1px;stroke-opacity:1"
d="M 214.08922198500434,150.64089221985006 196.1495170768357,92.28863311102099 108.79895062700464,85.33241892509741 108.90199054948657,175.86893151204424 164.99163039073656,177.59625050652966 167.37619461337968,150.1737619461338 150,150 167.37619461337968,150.1737619461338 170,120 167.37619461337968,150.1737619461338 z"
id="face 1"
/>
<path style="fill:#ffd6ba;fill-rule:evenodd;stroke:#000000;stroke-width:1px;stroke-opacity:1"
d="M 340.91337180415513,431.0695690800489 378.67158242178743,389.95667059965143 401.1174369073551,307.15954289203376 381.02595505269795,308.1578404629402 379.362754212879,328.61672299237995 292.2345347790675,402.6058440119023 291.7930896175377,351.66815399550046 256.8472151251916,351.25702606029637 250,430 z"
id="face 1"
/>
<path style="fill:#e3ffba;fill-rule:evenodd;stroke:#000000;stroke-width:1px;stroke-opacity:1"
d="M 234.20699517532813,171.99597549450343 219.65022061683484,168.72908456913788 214.08922198500434,150.64089221985006 167.37619461337968,150.1737619461338 164.99163039073656,177.59625050652966 193.87638363759152,178.48577632761763 194.5315788778193,196.9861720686886 226.25424133782775,191.96070038092105 z"
id="face 1"
/>
<path style="fill:#ffbae3;fill-rule:evenodd;stroke:#000000;stroke-width:1px;stroke-opacity:1"
d="M 153.53504923370474,309.3469338123955 141.25846718441943,312.22504883966366 117.46749698877443,329.55309994760916 123.3507589268806,348.51451971029746 117.46749698877443,329.55309994760916 88,351.015625 117.46749698877443,329.55309994760916 108.95646596465795,302.12252936290326 65.34806105972318,325.1927806365915 75.6281255025253,430.68856945234734 183.86406666267592,412.03213057737054 204.8678677611423,350.64550432660167 150,350 z"
id="face 1"
/>
<path style="fill:#bae3ff;fill-rule:evenodd;stroke:#000000;stroke-width:1px;stroke-opacity:1"
d="M 324.51851919473523,151.74518519194737 320.27503867337873,187.86954800031606 345.33294757872704,183.11368280848623 350,152 z"
id="face 1"
/>
<path style="fill:#e3ffba;fill-rule:evenodd;stroke:#000000;stroke-width:1px;stroke-opacity:1"
d="M 381.02595505269795,308.1578404629402 347.0528136172402,309.84588442188874 326.020663236124,311.86224509250684 320,352 291.7930896175377,351.66815399550046 292.2345347790675,402.6058440119023 379.362754212879,328.61672299237995 z"
id="face 1"
/>
<path style="fill:#bae3ff;fill-rule:evenodd;stroke:#000000;stroke-width:1px;stroke-opacity:1"
d="M 387.6177218461679,175.08824513758864 345.33294757872704,183.11368280848623 338.2338246315264,230.44116912315764 385.746191086851,230.67873095543425 z"
id="face 1"
/>
<path style="fill:#bae3ff;fill-rule:evenodd;stroke:#000000;stroke-width:1px;stroke-opacity:1"
d="M 326.020663236124,311.86224509250684 306.73957084788043,313.7107311328651 291.35778050710053,301.4384936410379 291.7930896175377,351.66815399550046 320,352 z"
id="face 1"
/>
<path style="fill:#bae3ff;fill-rule:evenodd;stroke:#000000;stroke-width:1px;stroke-opacity:1"
d="M 214.79634918586436,321.62809097366255 186.20911132029917,325.38530794957455 178.0712175771599,303.5946882331799 153.53504923370474,309.3469338123955 150,350 204.8678677611423,350.64550432660167 z"
id="face 1"
/>
<path style="fill:#ffbae3;fill-rule:evenodd;stroke:#000000;stroke-width:1px;stroke-opacity:1"
d="M 347.0528136172402,309.84588442188874 381.02595505269795,308.1578404629402 384.63048195740197,263.8188822613729 385.746191086851,230.67873095543425 338.2338246315264,230.44116912315764 326.020663236124,311.86224509250684 z"
id="face 1"
/>
<path style="fill:#bae3ff;fill-rule:evenodd;stroke:#000000;stroke-width:1px;stroke-opacity:1"
d="M 378.67158242178743,389.95667059965143 340.91337180415513,431.0695690800489 420,432 450,231 385.746191086851,230.67873095543425 384.63048195740197,263.8188822613729 381.02595505269795,308.1578404629402 401.1174369073551,307.15954289203376 z"
id="face 1"
/>
<path style="fill:#bae3ff;fill-rule:evenodd;stroke:#000000;stroke-width:1px;stroke-opacity:1"
d="M 108.95646596465795,302.12252936290326 94.96217549843786,257.01972438794695 60.01974802018928,270.51271610095665 65.34806105972318,325.1927806365915 z"
id="face 1"
/>
<path style="fill:#ffbae3;fill-rule:evenodd;stroke:#000000;stroke-width:1px;stroke-opacity:1"
d="M 196.6126960693869,255.74955932126122 194.5315788778193,196.9861720686886 162.86938571545454,202.00206427227283 156.34317992519271,277.05343086028364 z"
id="face 1"
/>
<path style="fill:#bae3ff;fill-rule:evenodd;stroke:#000000;stroke-width:1px;stroke-opacity:1"
d="M 193.87638363759152,178.48577632761763 164.99163039073656,177.59625050652966 162.86938571545454,202.00206427227283 194.5315788778193,196.9861720686886 z"
id="face 1"
/>
<path style="fill:#ffbae3;fill-rule:evenodd;stroke:#000000;stroke-width:1px;stroke-opacity:1"
d="M 219.65022061683484,168.72908456913788 234.20699517532813,171.99597549450343 242.60001477605627,150.9260001477606 214.08922198500434,150.64089221985006 z"
id="face 1"
/>
<path style="fill:#bae3ff;fill-rule:evenodd;stroke:#000000;stroke-width:1px;stroke-opacity:1"
d="M 266.22905992760684,179.18249832827567 273.15675672418985,151.2315675672419 242.60001477605627,150.9260001477606 234.20699517532813,171.99597549450343 z"
id="face 1"
/>
<path style="fill:#e3ffba;fill-rule:evenodd;stroke:#000000;stroke-width:1px;stroke-opacity:1"
d="M 94.96217549843786,257.01972438794695 108.95646596465795,302.12252936290326 156.34317992519271,277.05343086028364 162.86938571545454,202.00206427227283 55.008773302913085,219.08923198992062 60.01974802018928,270.51271610095665 z"
id="face 1"
/>
<path style="fill:#bae3ff;fill-rule:evenodd;stroke:#000000;stroke-width:1px;stroke-opacity:1"
d="M 141.25846718441943,312.22504883966366 153.53504923370474,309.3469338123955 156.34317992519271,277.05343086028364 108.95646596465795,302.12252936290326 117.46749698877443,329.55309994760916 z"
id="face 1"
/>
<path style="fill:#ffbae3;fill-rule:evenodd;stroke:#000000;stroke-width:1px;stroke-opacity:1"
d="M 268.0644845866874,282.85412516574723 244.13025346233562,317.7727397279204 214.79634918586436,321.62809097366255 204.8678677611423,350.64550432660167 256.8472151251916,351.25702606029637 291.7930896175377,351.66815399550046 291.35778050710053,301.4384936410379 z"
id="face 1"
/>
<path style="fill:#ffd6ba;fill-rule:evenodd;stroke:#000000;stroke-width:1px;stroke-opacity:1"
d="M 244.13025346233562,317.7727397279204 268.0644845866874,282.85412516574723 262,278.015625 268.0644845866874,282.85412516574723 278.0495640008037,268.28649031578254 268.0644845866874,282.85412516574723 291.35778050710053,301.4384936410379 291.19602500505295,282.7737707268833 291.35778050710053,301.4384936410379 306.73957084788043,313.7107311328651 326.020663236124,311.86224509250684 338.2338246315264,230.44116912315764 267.3837461973055,230.08691873098653 250,230 267.3837461973055,230.08691873098653 270,200 267.3837461973055,230.08691873098653 338.2338246315264,230.44116912315764 345.33294757872704,183.11368280848623 320.27503867337873,187.86954800031606 324.51851919473523,151.74518519194737 273.15675672418985,151.2315675672419 266.22905992760684,179.18249832827567 234.20699517532813,171.99597549450343 226.25424133782775,191.96070038092105 194.5315788778193,196.9861720686886 196.6126960693869,255.74955932126122 156.34317992519271,277.05343086028364 153.53504923370474,309.3469338123955 178.0712175771599,303.5946882331799 173,290.015625 178.0712175771599,303.5946882331799 194.4299493382526,299.7595563113116 178.0712175771599,303.5946882331799 186.20911132029917,325.38530794957455 214.79634918586436,321.62809097366255 230.2734076635803,276.3941640392558 214.79634918586436,321.62809097366255 z"
id="face 1"
/>
<path style="fill:none;fill-rule:evenodd;stroke:#ffffff;stroke-width:1px;stroke-opacity:1"
d="M 196.1495170768357,92.28863311102099 214.08922198500434,150.64089221985006 242.60001477605627,150.9260001477606 282,52.015625 242.60001477605627,150.9260001477606 273.15675672418985,151.2315675672419 281.6554121670707,116.94234608124802 273.15675672418985,151.2315675672419 324.51851919473523,151.74518519194737 331.72482424893815,90.39856725045827 324.51851919473523,151.74518519194737 350,152 345.33294757872704,183.11368280848623 387.6177218461679,175.08824513758864 385.746191086851,230.67873095543425 450,231 420,432 340.91337180415513,431.0695690800489 303.66456084292713,471.6278094869538 340.91337180415513,431.0695690800489 250,430 256.8472151251916,351.25702606029637 204.8678677611423,350.64550432660167 183.86406666267592,412.03213057737054 75.6281255025253,430.68856945234734 65.34806105972318,325.1927806365915 43,337.015625 65.34806105972318,325.1927806365915 60.01974802018928,270.51271610095665 38,279.015625 60.01974802018928,270.51271610095665 55.008773302913085,219.08923198992062 162.86938571545454,202.00206427227283 164.99163039073656,177.59625050652966 108.90199054948657,175.86893151204424 108.79895062700464,85.33241892509741 z"
id="face 1"
/>
</svg>